<svg xmlns="http://www.w3.org/2000/svg"><defs><font horiz-adv-x="0"><font-face ascent="1638" bbox="-1412 -740 3152 2307" cap-height="1399" descent="-410" panose-1="2 0 5 0 0 0 0 0 0 0" underline-position="-455" underline-thickness="70" unicode-range="U+001D-274C" units-per-em="2048" x-height="988"/><missing-glyph d="M468 12h-371v1492h371v-125h-250v-1236h250v-131zM1178 12h-371v131h250v1236h-250v125h371v-1492zM832 464l-191 206q-22-24-46.5-51t-50-54-49.5-53-44-48l-99 91 199 213q-83 87-159 170-20 21-27 28t-10 11l10 10t12 11.5 23 22.5 24 23.5 16 14.5 13 12l188-205q25 27 49.5 54t50.5 54q9 10 21 23t24.5 26.5 24 26.5 20.5 22q4-5 27-26 7-7 21.5-23t49.5-43l-198-212 199-211z" horiz-adv-x="1300"/><glyph d="M468 12h-371v1492h371v-125h-250v-1236h250v-131zM1178 12h-371v131h250v1236h-250v125h371v-1492zM832 464l-191 206q-22-24-46.5-51t-50-54-49.5-53-44-48l-99 91 199 213q-83 87-159 170-20 21-27 28t-10 11l10 10t12 11.5 23 22.5 24 23.5 16 14.5 13 12l188-205q25 27 49.5 54t50.5 54q9 10 21 23t24.5 26.5 24 26.5 20.5 22q4-5 27-26 7-7 21.5-23t49.5-43l-198-212 199-211z" glyph-name=".notdef" horiz-adv-x="1300"/><glyph glyph-name=".null"/><glyph glyph-name=".null"/><glyph glyph-name="nonmarkingreturn" horiz-adv-x="744"/><glyph glyph-name="space" horiz-adv-x="744" unicode="&#x20;"/><glyph d="M610 351h-121v1088h121v-1088zM552-27q-54 0-89.5 35t-35.5 92q0 59 35.5 94t89.5 35q59 0 94-35.5t35-93.5q0-57-35-92t-94-35z" glyph-name="exclam" horiz-adv-x="908" unicode="&#x21;"/><glyph d="M298 1340h-120v285h120v-285zM521 1340h-120v285h120v-285z" glyph-name="quotedbl" horiz-adv-x="737" unicode="&#x22;"/><glyph d="M1050 257h-120v230h-351v-230h-120v230h-235v121h235v348h-235v123h235v227h120v-227h351v227h120v-227h225v-123h-225v-348h225v-121h-225v-230zM930 608v348h-351v-348h351z" glyph-name="numbersign" horiz-adv-x="1483" unicode="&#x23;"/><glyph d="M567-211h-107v197q-180 8-309 83v137q156-102 309-106v538q-187 108-244 182-65 80-65 195 0 138 87 235 42 48 94.5 77.5t127.5 43.5v174h107v-170q142-5 246-46v-138q-116 65-246 69v-546q174-98 236-174 72-86 72-200 0-137-86-234-77-85-222-114v-203zM460 775v478q-92-23-138.5-82.5t-46.5-144.5q0-77 39.5-132t145.5-119zM567 106q94 25 138.5 82t44.5 135q0 80-42 136-37 49-141 114v-467z" glyph-name="dollar" horiz-adv-x="1087" unicode="&#x24;"/><glyph d="M1084 137q57 0 97 40t40 94q0 53-42.5 95t-94.5 42q-51 0-111-58-23-25-23-79 0-56 39-95t95-39zM372 997q58 0 98 39.5t40 95.5q0 55-41 93-39 44-97 44-54 0-94-45-39-37-39-92 0-56 41-95 37-40 92-40zM1084 22q-103 0-176.5 74t-73.5 175 75.5 176.5 174.5 75.5q100 0 176-76t76-176q0-50-18-93t-69-94l1-1q-66-61-166-61zM372 882q-102 0-164 62-84 84-84 188 0 101 73 175l1 2q75 75 174 75 102 0 168-66 85-85 85-186 0-105-84-189-26-25-70.5-43t-98.5-18zM223 54q-28 28-37 36-15 12-20 17-1 1-5.5 5t-9.5 9-9.5 9-5.5 6l315 337q185 202 372 403 215 233 431 465l84-82z" glyph-name="percent" horiz-adv-x="1532" unicode="&#x25;"/><glyph d="M585-25q-205 0-330 108-119 111-119 280 0 260 319 419-152 187-152 331 0 141 100 238 97 98 256 98 144 0 227.5-84t83.5-210q0-128-84-236-77-89-244-169 197-206 409-404 110 186 124 417h116q-16-277-163-497 111-111 284-270l-175 4-182 179q-207-204-470-204zM564 830q149 67 225 145 65 73 65 169 0 92-58.5 146.5t-145.5 54.5q-100 0-169-69-62-66-62-165 0-115 143-281h2zM593 79q217 0 385 177-319 309-445 445-280-127-280-331 0-124 89-209 97-82 251-82z" glyph-name="ampersand" horiz-adv-x="1435" unicode="&#x26;"/><glyph d="M419 1340h-120v285h120v-285z" glyph-name="quotesingle" horiz-adv-x="678" unicode="&#x27;"/><glyph d="M551-62q-185 191-275 389.5t-90 414.5q0 314 179 610 81 136 185 247 51-44 90-90-184-193-275-467-50-146-50-304 0-367 327-710z" glyph-name="parenleft" horiz-adv-x="849" unicode="&#x28;"/><glyph d="M328-63l-89 91q327 345 327 709 0 155-51 306-91 272-276 467l90 90q110-119 186-248 181-310 181-610 0-215-91-413.5t-277-391.5z" glyph-name="parenright" horiz-adv-x="859" unicode="&#x29;"/><glyph d="M482 256q-2 1-7.5 4t-12 7-12 7-8.5 5-7.5 4.5-9.5 6-17 9.5-32 17l231 392h-456v123h454q-71 127-148 254-15 24-29 48.5t-27.5 46.5-22.5 39q15 12 84 55l19 13 228-395 20 33q41 77 206 360l106-62-226-392h452v-123h-452l224-387q-27-24-38-27-2-1-3.5-2.5t-2.5-1.5q-6-5-14.5-9t-13.5-7l-32-16-225 393q-27-49-56-97-49-83-172-298z" glyph-name="asterisk" horiz-adv-x="1434" unicode="&#x2a;"/><glyph d="M755 214h-120v478h-473v119h473v492h120v-492h495v-119h-495v-478z" glyph-name="plus" horiz-adv-x="1366" unicode="&#x2b;"/><glyph d="M364-192q-23 0-69 12l29 97h38q66 0 118 43 26 28 31 54-39-39-89-39-51 0-87 36t-36 87q0 50 36 86t96 36q64 0 103-26 61-43 83-125 2-23 2-45 0-77-54-133-97-83-201-83z" glyph-name="comma" horiz-adv-x="820" unicode="&#x2c;"/><glyph d="M1019 692h-809v119h809v-119z" glyph-name="hyphen" horiz-adv-x="1227" unicode="&#x2d;"/><glyph d="M187-11q-37 0-63 25.5t-26 64.5 27 63q27 27 62 27t63-25 28-65q0-37-27-64l-2-3q-26-23-62-23z" glyph-name="period" horiz-adv-x="390" unicode="&#x2e;"/><glyph d="M213-227l-105 63q857 1711 938 1875l107-52q-399-794-940-1886z" glyph-name="slash" horiz-adv-x="1303" unicode="&#x2f;"/><glyph d="M502-37q-197 0-309 180-107 172-107 508 0 370 116 561 114 186 329 186 408 0 408-712 0-354-114.5-538.5t-322.5-184.5zM513 76q139 0 218 148 83 158 83 449 0 611-290 611-149 0-231-156.5t-82-464.5q0-288 81-441 78-146 221-146z" glyph-name="zero" horiz-adv-x="1086" unicode="&#x30;"/><glyph d="M894-14h-736v114h310v1168q-39-14-82-29t-86-30.5-84.5-30.5-78.5-28v122l452 158v-1330h305v-114z" glyph-name="one" horiz-adv-x="1012" unicode="&#x31;"/><glyph d="M882-14h-808v117l374 398q191 204 257 309 60 96 60 213 0 124-69.5 192.5t-196.5 68.5q-171 0-355-161v148q169 127 367 127 180 0 279-99t99-262q0-146-70-263-67-114-288-349l-307-325h658v-114z" glyph-name="two" horiz-adv-x="1074" unicode="&#x32;"/><glyph d="M413-37q-155 0-307 77v141q175-105 308-105 157 0 244.5 78.5t87.5 206.5q0 142-102.5 215t-289.5 73h-121v114h110q172 0 263 72t91 206q0 114-64.5 178.5t-188.5 64.5q-122 0-285-102v134q168 82 298 82 165 0 265.5-92t100.5-243q0-256-221-346 111-28 179-102 90-98 90-240 0-186-130-301-126-111-328-111z" glyph-name="three" horiz-adv-x="1065" unicode="&#x33;"/><glyph d="M773-14h-120v384h-625v95l632 910h113v-893h181v-112h-181v-384zM653 482v683q-11-18-474-683h474z" glyph-name="four" horiz-adv-x="1069" unicode="&#x34;"/><glyph d="M402-37q-147 0-269 57v139q151-83 276-83 162 0 249.5 86.5t87.5 231.5q0 314-360 314-73 0-216-13v680h643v-113h-522v-446q73 5 128 5 221 0 336.5-108t115.5-307q0-197-123-320-120-123-346-123z" glyph-name="five" horiz-adv-x="1048" unicode="&#x35;"/><glyph d="M516-37q-195 0-307 166-106 164-106 469 0 361 140 578 146 222 403 222 115 0 214-39v-130q-118 55-216 55-191 0-303-180-100-161-114-420 109 184 324 184 174 0 280.5-124.5t106.5-310.5q0-205-119-337.5t-303-132.5zM524 76q117 0 204 95 84 101 84 244 0 153-75 248-75 91-205 91-127 0-211-94t-84-214q0-152 81-263 78-107 206-107z" glyph-name="six" horiz-adv-x="1079" unicode="&#x36;"/><glyph d="M372-14h-131l526 1276h-696v113h850v-44z" glyph-name="seven" horiz-adv-x="1071" unicode="&#x37;"/><glyph d="M475-37q-171 0-278.5 99.5t-107.5 260.5q0 243 285 387-239 129-239 342 0 149 110 247 108 99 277 99 154 0 252.5-91.5t98.5-232.5q0-227-253-358 297-125 297-380 0-166-116-269.5t-326-103.5zM500 775q248 102 248 288 0 105-65 163t-175 58q-105 0-176.5-63.5t-71.5-155.5q0-187 240-290zM504 76q137 0 213 72t76 177q0 118-72.5 193t-227.5 129q-152-65-215.5-135.5t-63.5-185.5q0-105 76-179 80-71 214-71z" glyph-name="eight" horiz-adv-x="1069" unicode="&#x38;"/><glyph d="M368-37q-102 0-214 39v135q131-61 216-61 193 0 301 149t120 445q-104-169-318-169-174 0-282.5 121.5t-108.5 311.5q0 203 120.5 333.5t305.5 130.5q188 0 302-163 107-157 107-467 0-376-139-593-148-212-410-212zM494 615q119 0 201 85 86 86 86 206 0 169-82 275-78 103-203 103t-206.5-94-81.5-238q0-160 79.5-248.5t206.5-88.5z" glyph-name="nine" horiz-adv-x="1069" unicode="&#x39;"/><glyph d="M361 1023q-57 0-92 35t-35 93 35 93 92 35 92-35.5 35-92.5q0-58-35-93t-92-35zM360 214q-55 0-90.5 35t-35.5 93 35.5 93 90.5 35q58 0 93-35.5t35-92.5q0-58-35-93t-93-35z" glyph-name="colon" horiz-adv-x="713" unicode="&#x3a;"/><glyph d="M326-192q-23 0-69 12l29 97h38q66 0 118 43 26 28 31 54-39-39-89-39-51 0-87 36t-36 87q0 50 36 86t96 36q64 0 103-26 61-43 83-125 2-23 2-45 0-77-54-133-97-83-201-83zM403 277q-40 0-78 32-29 35-29 83 16 94 107 108 54 0 85-32.5t31-75.5q0-51-31-83t-85-32z" glyph-name="semicolon" horiz-adv-x="768" unicode="&#x3b;"/><glyph d="M580 312q-68 64-271 267l-67 64v-1l-82 82 209 206q96 92 209 205l86-90-327-320q265-257 332-323-6-6-13.5-14.5t-15-16-14-14.5-9.5-9.5-7.5-7.5-10.5-10.5-11.5-10.5-7.5-7z" glyph-name="less" horiz-adv-x="810" unicode="&#x3c;"/><glyph d="M1218 526h-889v119h889v-119zM1218 845h-889v119h889v-119z" glyph-name="equal" horiz-adv-x="1532" unicode="&#x3d;"/><glyph d="M246 312l-86 92 332 321q-20 18-41 40-53 54-94 92.5t-113 109.5v-1l-78 79 88 89q46-46 90.5-89t69.5-68q45-46 257-254l-215-207v1z" glyph-name="greater" horiz-adv-x="825" unicode="&#x3e;"/><glyph d="M593 272q1 81 29 151 69 175 278 248 252 126 252 333 0 75-43 154-99 165-257 165-68 0-113-19-62-31-100-72-65-70-65-154 0-55 30-103 19-32 43-49-15 30-15 66 0 61 43 104t104 43q35 0 64-14 38-25 53-44 0-2 1-3 27-39 27-97 0-50-42-92.5t-103-42.5-104 43q-17 17-28 37 25-17 56-17 39 0 75 21 33 27 33 53 0 36-33 83l65 59q34-22 53-44 0-2 1-3 28-37 28-86 0-89-93-159-59-34-119-34-136 0-205 114-47 80-47 165 0 54 16 99 45 144 212 224 73 35 156 35 229 0 360-220 61-104 61-210 0-68-22-134-61-195-303-306-84-36-129-69-102-88-106-205zM677-29q-51 0-85 38l3-1q-39 34-39 81t39 88q34 35 82 35 45 0 81.5-37t36.5-86q0-48-37-81l2 1q-32-38-83-38z" glyph-name="question" horiz-adv-x="1483" unicode="&#x3f;"/><glyph d="M739 452q81 0 137.5 56.5t56.5 140.5v214q0 85-57 140-57 58-137 58t-138-59-58-139v-214q0-79 63-145l-1-1q55-51 134-51zM734 51q-264 14-405 132-153 141-153 358v430q0 222 154 357 160 133 409 133 245 0 405-134 157-139 157-356v-436q-34-165-209-165-64 0-138 57-105-89-215-89-133 0-222 91-91 87-91 220v214q0 130 92.5 220.5t220.5 90.5q125 0 216.5-91.5t91.5-219.5v-214q0-52-28-125 39-37 70-39 59 0 75 13 16 10 23 43v430q0 184-150 294-123 82-298 82-177 0-300-82-150-110-150-294v-430q0-188 150-293 111-74 295-84v-113z" glyph-name="at" horiz-adv-x="1473" unicode="&#x40;"/><glyph d="M1217-13h-143l-157 428h-574l-157-428h-142l533 1412h114zM872 537q-231 633-242 669-9-33-18-53l-223-616h483z" glyph-name="A" horiz-adv-x="1339" unicode="&#x41;"/><glyph d="M546-13h-387v1412h380q165 0 268.5-94t103.5-243q0-111-52-195.5t-151-132.5q114-26 181-99 88-96 88-237 0-180-117-295.5t-314-115.5zM464 778q142 0 229 73 84 70 84 195 0 231-276 231h-212v-499h175zM527 108q155 0 236 73t81 208q0 268-370 268h-185v-549h238z" glyph-name="B" horiz-adv-x="1125" unicode="&#x42;"/><glyph d="M744-37q-293 0-474.5 194.5t-181.5 507.5q0 343 198 550t503 207q156 0 321-57v-138q-163 74-323 74-251 0-409-170.5t-158-456.5q0-275 151-432t381-157q188 0 358 84v-132q-178-74-366-74z" glyph-name="C" horiz-adv-x="1309" unicode="&#x43;"/><glyph d="M504-13h-342v1412h362q353 0 535.5-175t182.5-512q0-319-197-524-197-201-541-201zM491 108q301 0 459 153.5t158 446.5q0 569-598 569h-218v-1169h199z" glyph-name="D" horiz-adv-x="1399" unicode="&#x44;"/><glyph d="M868-13h-710v1412h678v-122h-548v-518h509v-121h-509v-530h580v-121z" glyph-name="E" horiz-adv-x="1048" unicode="&#x45;"/><glyph d="M288-13h-130v1412h678v-122h-548v-528h509v-121h-509v-641z" glyph-name="F" horiz-adv-x="972" unicode="&#x46;"/><glyph d="M735-37q-288 0-469 196-177 196-177 513t191 534q193 216 514 216 188 0 370-79v-143q-211 101-384 101-251 0-405-172t-154-442q0-284 143.5-443t388.5-159q167 0 309 73v427h-325v121h455v-617q-225-126-457-126z" glyph-name="G" horiz-adv-x="1395" unicode="&#x47;"/><glyph d="M1174-13h-129v660h-754v-660h-130v1412h130v-631h754v631h129v-1412z" glyph-name="H" horiz-adv-x="1395" unicode="&#x48;"/><glyph d="M414-13h-398v121h134v1170h-134v121h398v-121h-134v-1170h134v-121z" glyph-name="I" horiz-adv-x="472" unicode="&#x49;"/><glyph d="M115-37q-63 0-122 18v128q75-24 124-24 124 0 178.5 97t54.5 298v919h128v-921q0-515-363-515z" glyph-name="J" horiz-adv-x="679" unicode="&#x4a;"/><glyph d="M1058-13h-179l-589 660v-660h-130v1412h130v-621l561 621h170l-619-685q312-344 656-727z" glyph-name="K" horiz-adv-x="1089" unicode="&#x4b;"/><glyph d="M840-13h-682v1412h130v-1291h552v-121z" glyph-name="L" horiz-adv-x="949" unicode="&#x4c;"/><glyph d="M1484-13h-125v995q0 52 4 108l-8-18q-289-628-502-1085h-52l-508 1090q1-37 1-1090h-129v1412h116l518-1119q0-2 2-5 7-12 9-20 1-4 2-5 2-8 14-38l4-11q8 24 30 84l512 1114h112v-1412z" glyph-name="M" horiz-adv-x="1701" unicode="&#x4d;"/><glyph d="M1238-13h-93q-850 1154-853 1159v-1159h-130v1412h99l848-1151q-1 30-1 1151h130v-1412z" glyph-name="N" horiz-adv-x="1444" unicode="&#x4e;"/><glyph d="M747-37q-300 0-478 200.5t-178 514.5q0 336 183.5 540t498.5 204q285 0 463-197t178-511q0-341-182-550-189-201-485-201zM745 85q249 0 392.5 160.5t143.5 452.5q0 286-140.5 444.5t-383.5 158.5q-231 0-382-168.5t-151-443.5q0-276 143-442 141-162 378-162z" glyph-name="O" horiz-adv-x="1561" unicode="&#x4f;"/><glyph d="M289-13h-130v1412h350q223 0 338.5-102t115.5-302-131-328-363-128h-180v-552zM468 661q178 0 270.5 84t92.5 239q0 293-339 293h-203v-616h179z" glyph-name="P" horiz-adv-x="1134" unicode="&#x50;"/><glyph d="M1281-386q-93 1-166 27-134 47-264 183-61 63-129 139-282 4-459.5 200t-177.5 513q0 340 182 543t500 203q284 0 462-197.5t178-514.5q0-137-33-261-69-259-280-393-94-58-222-81 71-71 91-89 148-148 328-148 65 0 119 18 6 3 9.5 4t27.5 13v-131q-82-28-166-28zM740 85q248 0 391.5 156.5t143.5 446.5q0 293-140.5 453t-383.5 160q-238 0-386-169.5t-148-440.5 145-441q144-165 378-165z" glyph-name="Q" horiz-adv-x="1579" unicode="&#x51;"/><glyph d="M1017-13h-145l-189 414q-53 118-107 158.5t-133 40.5h-154v-613h-129v1412h399q190 0 299.5-102.5t109.5-273.5q0-146-76.5-245.5t-225.5-139.5q70-51 134-188zM509 721q149 0 240 79 86 77 86 213 0 124-78.5 194t-226.5 70h-241v-556h220z" glyph-name="R" horiz-adv-x="1147" unicode="&#x52;"/><glyph d="M437-37q-80 0-169 21.5t-153 58.5v149q168-107 317-107 152 0 231.5 61.5t79.5 174.5q0 101-51 155-55 60-240 169-216 127-271 210-59 90-59 200 0 149 119 260 126 107 315 107 122 0 263-47v-138q-143 64-276 64-132 0-211-69-76-65-76-166t51-157 239-166q194-110 261.5-199.5t67.5-205.5q0-167-114.5-271t-323.5-104z" glyph-name="S" horiz-adv-x="1039" unicode="&#x53;"/><glyph d="M566-13h-128v1290h-398v122h924v-122h-398v-1290z" glyph-name="T" horiz-adv-x="1071" unicode="&#x54;"/><glyph d="M627-37q-484 0-484 570v866h129v-852q0-462 373-462 360 0 360 448v866h129v-845q0-591-507-591z" glyph-name="U" horiz-adv-x="1359" unicode="&#x55;"/><glyph d="M622-13h-96l-516 1412h143q414-1152 426-1192 10 35 451 1192h139z" glyph-name="V" horiz-adv-x="1264" unicode="&#x56;"/><glyph d="M1324-13h-106q-311 1052-322 1097l-344-1097h-105l-420 1412h144l326-1147q3-15 7-29 5 14 8.5 27.5t353.5 1148.5h75l323-1147q3-15 7-29l327 1176h139z" glyph-name="W" horiz-adv-x="1849" unicode="&#x57;"/><glyph d="M1060-13h-157l-321 532-35 80q-46-79-374-612h-155l445 711-420 701h156l313-527 38-68q27 52 348 595h152l-423-699q387-639 433-713z" glyph-name="X" horiz-adv-x="1165" unicode="&#x58;"/><glyph d="M584-13h-129v535q-119 244-432 877h145q333-688 355-743 7 16 16 33 118 230 358 710h143l-456-876v-536z" glyph-name="Y" horiz-adv-x="1147" unicode="&#x59;"/><glyph d="M1048-13h-1002v51l818 1239h-752v122h949v-48l-822-1243h809v-121z" glyph-name="Z" horiz-adv-x="1183" unicode="&#x5a;"/><glyph d="M586-279h-357v2082h357v-110h-240v-1861h240v-111z" glyph-name="bracketleft" horiz-adv-x="917" unicode="&#x5b;"/><glyph d="M1046-227l-279 560q-298 596-660 1326l106 52q84-172 939-1882-39-23-51-26l-13-8q-20-9-42-22z" glyph-name="backslash" horiz-adv-x="1278" unicode="&#x5c;"/><glyph d="M627-279h-357v111h240v1861h-240v110h357v-2082z" glyph-name="bracketright" horiz-adv-x="922" unicode="&#x5d;"/><glyph d="M1039 649h-128l-282 562q-70-139-142.5-281.5t-140.5-280.5h-129l381 749h60z" glyph-name="asciicircum" horiz-adv-x="1309" unicode="&#x5e;"/><glyph d="M820-267h-837v119h837v-119z" glyph-name="underscore" horiz-adv-x="859" unicode="&#x5f;"/><glyph d="M408 1109h-127l-260 343h141z" glyph-name="grave" horiz-adv-x="592" unicode="&#x60;"/><glyph d="M400-37q-145 0-230 81-85 84-85 209 0 268 349 323l284 42q-9 280-217 280-152 0-328-147v148q57 46 156.5 79t179.5 33q159 0 244.5-95.5t85.5-283.5v-646h-121v152q-55-85-137-130t-181-45zM410 76q131 0 219.5 98t88.5 255v75l-248-36q-150-23-204.5-67t-54.5-144q0-80 52-130.5t147-50.5z" glyph-name="a" horiz-adv-x="1026" unicode="&#x61;"/><glyph d="M572-37q-198 0-308 157v-134h-121v1466h121v-625q60 93 150.5 138.5t198.5 45.5q190 0 299-133t109-356q0-249-125-404t-324-155zM580 76q138 0 226 119 90 129 90 325 0 176-80 277t-215 101q-163 0-248-107-89-110-89-256v-122q0-139 87.5-238t228.5-99z" glyph-name="b" horiz-adv-x="1170" unicode="&#x62;"/><glyph d="M525-37q-205 0-330.5 141.5t-125.5 365.5q0 236 140.5 388.5t362.5 152.5q113 0 231-51v-140q-126 78-245 78-160 0-262-118.5t-102-303.5q0-182 93-291t242-109q140 0 270 95v-135q-118-73-274-73z" glyph-name="c" horiz-adv-x="936" unicode="&#x63;"/><glyph d="M492-37q-187 0-304 135t-117 372q0 244 127 390 128 151 333 151 194 0 297-142v583h121v-1466h-121v139q-57-78-144-120t-192-42zM498 76q156 0 242 96 88 100 88 239v181q0 129-81 217.5t-218 88.5q-144 0-238.5-111.5t-94.5-308.5q0-188 85-300 86-102 217-102z" glyph-name="d" horiz-adv-x="1165" unicode="&#x64;"/><glyph d="M505-37q-196 0-315 138.5t-119 391.5q0 108 31 200.5t92 165.5q63 72 146.5 112t180.5 40q190 0 290-132.5t100-356.5v-56h-716q6-182 88-284 87-106 240-106 158 0 335 138v-137q-162-114-353-114zM785 580q-11 155-80 236.5t-188 81.5q-123 0-205.5-80t-109.5-238h583z" glyph-name="e" horiz-adv-x="1071" unicode="&#x65;"/><glyph d="M308-14h-121v888h-174v114h174v151q0 159 82 244t204 85q62 0 119-24v-136q-57 46-122 46-162 0-162-223v-143h256v-114h-256v-888z" glyph-name="f" horiz-adv-x="580" unicode="&#x66;"/><glyph d="M442-468q-149 0-305 79v132q172-98 307-98 384 0 384 407v74q-121-163-336-163-188 0-304.5 134.5t-116.5 372.5q0 236 126.5 388.5t333.5 152.5q192 0 297-141v118h121v-913q0-279-123.5-411t-383.5-132zM504 76q148 0 236 95t88 237v191q0 123-81.5 211t-213.5 88q-151 0-244-114.5t-93-305.5q0-187 85-299 85-103 223-103z" glyph-name="g" horiz-adv-x="1161" unicode="&#x67;"/><glyph d="M920-14h-121v597q0 162-58 238.5t-182 76.5q-117 0-206.5-92.5t-89.5-266.5v-553h-121v1466h121v-604q118 163 319 163 165 0 251.5-104t86.5-304v-617z" glyph-name="h" horiz-adv-x="1116" unicode="&#x68;"/><glyph d="M192 1197q-35 0-62 25t-27 66q0 39 27.5 63t61.5 24q37 0 63.5-24t26.5-63q0-37-27-64t-63-27zM253-14h-121v1002h121v-1002z" glyph-name="i" horiz-adv-x="441" unicode="&#x69;"/><glyph d="M186 1197q-35 0-62 25.5t-27 65.5q0 39 27.5 63t61.5 24q37 0 64-24t27-63q0-36-27.5-63.5t-63.5-27.5zM-111-468q-75 0-155 40v130q96-57 164-57 229 0 229 370v973h121v-957q0-499-359-499z" glyph-name="j" horiz-adv-x="432" unicode="&#x6a;"/><glyph d="M878-14h-174l-442 457v-457h-121v1466h121v-901l418 437h160l-475-486z" glyph-name="k" horiz-adv-x="931" unicode="&#x6b;"/><glyph d="M253-14h-121v1466h121v-1466z" glyph-name="l" horiz-adv-x="414" unicode="&#x6c;"/><glyph d="M1484-14h-121v599q0 177-55 247-50 66-166 66-108 0-184-92-80-95-80-236v-584h-121v606q0 306-228 306-111 0-184.5-94t-73.5-243v-575h-121v1002h121v-126q106 149 282 149 204 0 285-198 116 198 311 198 335 0 335-410v-615z" glyph-name="m" horiz-adv-x="1710" unicode="&#x6d;"/><glyph d="M920-14h-121v580q0 332-234 332-128 0-216-96-86-105-86-243v-573h-121v1002h121v-140q111 163 317 163 165 0 252.5-107.5t87.5-311.5v-606z" glyph-name="n" horiz-adv-x="1107" unicode="&#x6e;"/><glyph d="M547-37q-218 0-346.5 144.5t-128.5 373.5q0 246 133 389 141 141 353 141 215 0 339.5-141.5t124.5-384.5q0-232-126.5-377t-348.5-145zM550 76q168 0 257.5 108t89.5 303q0 200-91 307-85 104-252 104-164 0-260-110-97-107-97-309 0-181 95-292t258-111z" glyph-name="o" horiz-adv-x="1165" unicode="&#x6f;"/><glyph d="M264-459h-121v1447h121v-161q60 93 150.5 138.5t198.5 45.5q190 0 299-133t109-356q0-249-122.5-404t-326.5-155q-198 0-308 157v-579zM580 76q138 0 226 119 90 129 90 325 0 176-80 277t-215 101q-163 0-248-107-89-110-89-256v-122q0-139 87.5-238t228.5-99z" glyph-name="p" horiz-adv-x="1179" unicode="&#x70;"/><glyph d="M949-459h-121v587q-116-165-337-165-189 0-306 140-114 136-114 369 0 245 130 392t332 147q194 0 295-143v120h121v-1447zM496 76q161 0 245 97 87 100 87 244v166q0 139-79 227t-222 88q-142 0-236.5-111.5t-94.5-310.5q0-189 83.5-294.5t216.5-105.5z" glyph-name="q" horiz-adv-x="1179" unicode="&#x71;"/><glyph d="M256-14h-119v1002h119l-11-177q42 97 111.5 146.5t157.5 49.5q60 0 114-22v-140q-64 49-119 49-104 0-177-109-76-115-76-327v-472z" glyph-name="r" horiz-adv-x="702" unicode="&#x72;"/><glyph d="M338-37q-147 0-251 73v152q133-112 257-112 211 0 211 169 0 56-43 96-47 43-159 91-144 63-201 129-61 68-61 170 0 126 95.5 203t234.5 77q129 0 230-58v-140q-128 85-240 85-88 0-141.5-45.5t-53.5-116.5q0-60 32-100 39-43 157-95 155-70 211-129 64-63 64-167 0-123-93-204-88-78-249-78z" glyph-name="s" horiz-adv-x="787" unicode="&#x73;"/><glyph d="M407-33q-232 0-232 274v633h-174v114h174v242q38 20 73 29l48 12v-283h255v-114h-255v-621q0-90 28-131.5t94-41.5q50 0 133 47v-121q-84-39-144-39z" glyph-name="t" horiz-adv-x="625" unicode="&#x74;"/><glyph d="M481-37q-360 0-360 448v577h122v-555q0-185 61-271t190-86q128 0 205 93 81 97 81 254v565h121v-1002h-121v138q-114-161-299-161z" glyph-name="u" horiz-adv-x="1111" unicode="&#x75;"/><glyph d="M479-14h-102l-387 1002h134q292-781 307-824 4 12 7 22t7 19q74 191 150.5 391t150.5 392h132z" glyph-name="v" horiz-adv-x="936" unicode="&#x76;"/><glyph d="M992-14h-108l-217 752-243-752h-107l-302 1002h133l231-795 2 6q2 10 251 789h85l219-776q-2 7-3 7-2 0-2-8l3-38 242 815h127z" glyph-name="w" horiz-adv-x="1395" unicode="&#x77;"/><glyph d="M792-14h-152l-247 396q-6-8-11-17-15-23-16-23-4-9-12-18-53-81-109-169t-109-169h-147l335 492-328 510h143q240-388 257-417 18 32 266 417h143l-340-510q56-86 164-247 68-101 163-245z" glyph-name="x" horiz-adv-x="868" unicode="&#x78;"/><glyph d="M105-468q-45 0-93 19v121q50-19 97-19 101 0 167 150l86 209-372 976h134q283-763 304-827l324 827h132l-481-1188q-53-131-120-198-72-70-178-70z" glyph-name="y" horiz-adv-x="954" unicode="&#x79;"/><glyph d="M838-14h-800v56l626 832h-579v114h777v-47l-631-841h607v-114z" glyph-name="z" horiz-adv-x="949" unicode="&#x7a;"/><glyph d="M714-269q-133 0-222 73-53 40-83 103.5t-35 138.5q2 44 21 125 15 67 46 155 45 135 45 166v24q0 99-47 141-49 36-105 36-39 0-72-11-26-8-69-8v190q7-2 15-3 29-4 36-9 2-2 15-3 21-7 72-7 78 0 140 45 69 57 69 165 0 79-56 219-23 65-37 112-19 59-19 123 0 152 94 232 80 68 185 68 38 0 88-8l-23-118-56 3q-165 0-165-181v-15q0-54 48-170 59-159 64-284-6-72-36.5-136.5t-76.5-104.5q-2-1-9-5t-9.5-6-6-4-9-5.5-15.5-8.5q12-10 20-15 89-89 89-233 0-92-56-232-58-145-58-232 8-101 70-155l-1 2q58-46 139-46 20 0 59 3l27-118q-53-6-76-6z" glyph-name="braceleft" horiz-adv-x="1078" unicode="&#x7b;"/><glyph d="M615 240h-120v1088h120v-1088z" glyph-name="bar" horiz-adv-x="843" unicode="&#x7c;"/><glyph d="M362-269q-23 0-76 6l27 118q39-3 59-3 81 0 139 46l-1-2q30 26 48 66 22 48 22 97 0 79-58 224-56 140-56 232 0 144 89 233 8 5 20 15-10 5-15.5 8.5t-9 5.5-6 4-9.5 6-9 5q-46 40-76.5 104.5t-36.5 136.5q5 125 64 284 44 106 47 155 1 6 1 30 0 98-48 143-47 38-109 38-12 0-18.5-.5t-17.5-1-28-1.5l-23 118q50 8 88 8 105 0 185-68 94-80 94-232 0-20-2-36 0-46-54-199-56-140-56-219 0-108 70-165 61-45 139-45 49 0 73 7 12 1 15 3 7 5 36 9l14 3v-190h-22q-19 0-47 8-33 11-72 11-56 0-105-36-47-42-47-141 0-30 2-35 3-35 43-155 62-177 67-280-5-75-35-138.5t-83-103.5q-89-73-222-73z" glyph-name="braceright" horiz-adv-x="1074" unicode="&#x7d;"/><glyph d="M813 429q-95 0-201 83-94 76-156 76-116 0-128-149h-107q7 131 69 196.5t168 65.5q97 0 196-78 64-51 95.5-66.5t66.5-15.5q111 0 129 151h107q-8-131-71.5-197t-167.5-66z" glyph-name="asciitilde" horiz-adv-x="1345" unicode="&#x7e;"/><glyph d="M273 819q-40 0-67 25t-27 67q0 40 27 67t67 27 66.5-27 26.5-67q0-42-26.5-67t-66.5-25zM342-399h-134l9 1008h116z" glyph-name="exclamdown" horiz-adv-x="576" unicode="&#xa1;"/><glyph d="M664-68h-120v189q-184 24-289 153-112 136-112 350 0 204 111 355 107 138 290 178v191h120v-184q111-4 213-50v-140q-102 65-213 76v-814q115 17 209 90v-135q-86-54-209-70v-189zM544 237v804q-127-32-196-132-80-111-80-278 0-159 78-274 73-94 198-120z" glyph-name="cent" horiz-adv-x="1102" unicode="&#xa2;"/><glyph d="M915-14h-854v110q234 97 234 333v183h-215v119h215v257q0 185 98 297.5t261 112.5q93 0 189-39v-129q-112 54-192 54-112 0-173.5-79t-61.5-229v-245h290v-119h-290v-151q0-234-166-361h665v-114z" glyph-name="sterling" horiz-adv-x="1104" unicode="&#xa3;"/><glyph d="M893 257l-129 128q-103-76-227-76-125 0-227 76l-128-128-82 82 132 125q-74 111-74 224 0 127 74 226-32 33-67 66t-64 61l81 81 129-130q109 75 226 75 125 0 225-75 103 103 131 130l80-81-131-127q74-99 74-226 0-123-73-225l131-124zM537 423q109 0 187 78.5t78 188.5q0 111-80 187.5t-183 76.5q-112 0-190-79t-78-185 79.5-186.5 186.5-80.5z" glyph-name="currency" horiz-adv-x="1165" unicode="&#xa4;"/><glyph d="M553-14h-120v314h-352v113h352v199h-352v112h312l-179 328q-81 146-177 323h134q318-592 325-607 15 40 31 63 71 132 148.5 271t150.5 273h128l-362-651h314v-112h-353v-199h353v-113h-353v-314z" glyph-name="yen" horiz-adv-x="1089" unicode="&#xa5;"/><glyph d="M275 662h-123v839h123v-839zM275-468h-123v839h123v-839z" glyph-name="brokenbar" horiz-adv-x="459" unicode="&#xa6;"/><glyph d="M373-76q-108 0-222 54v131q136-72 223-72 94 0 143 43.5t49 112.5q0 45-27 87-23 38-125 90-170 83-221.5 158t-51.5 172q0 153 140 243-103 87-103 205 0 127 82 203 86 78 227 78 106 0 201-42v-130q-101 58-203 58-182 0-182-160 0-67 46-112 50-48 196-113 203-94 203-279 0-146-137-268 81-76 81-188 0-120-90-194-86-77-229-77zM514 454q51 39 80 84.5t29 112.5q0 69-41 111-42 49-197 116-119-58-119-173 0-86 49-134 52-52 199-117z" glyph-name="section" horiz-adv-x="940" unicode="&#xa7;"/><glyph d="M543 1109q-33 0-58.5 23.5t-25.5 61.5 25.5 60 56.5 22q34 0 61.5-24t27.5-58q0-38-25-61.5t-62-23.5zM228 1109q-33 0-59 22.5t-26 62.5q0 38 26 60t57 22q36 0 62-24t26-58q0-38-24.5-61.5t-61.5-23.5z" glyph-name="dieresis" horiz-adv-x="850" unicode="&#xa8;"/><glyph d="M866-37q-298 0-512 209-210 210-210 507 0 299 212.5 509t507.5 210q297 0 510.5-210.5t213.5-506.5q0-297-211.5-507.5t-510.5-210.5zM864 69q256 0 435 179t179 431-180.5 432.5-433.5 180.5q-249 0-430-181t-181-432q0-246 179-431 185-179 432-179zM894 174q-204 0-345 138.5t-141 342.5q0 239 144 381t357 142q124 0 234-57v-121q-124 66-249 66-154 0-259.5-106.5t-105.5-284.5q0-175 109-281t265-106q120 0 244 77v-116q-129-75-253-75z" glyph-name="copyright" horiz-adv-x="1827" unicode="&#xa9;"/><glyph d="M281 648q-108 0-168 60.5t-60 147.5q0 101 67.5 161t189.5 79l197 30q-7 158-139 158-122 0-257-105v136q135 79 264 79 252 0 252-276v-454h-120v97q-82-113-226-113zM298 757q82 0 144 73 65 72 65 166v24l-158-24q-107-18-141-44.5t-34-91.5q0-46 32.5-74.5t91.5-28.5z" glyph-name="ordfeminine" horiz-adv-x="769" unicode="&#xaa;"/><glyph d="M818 176h-150l-276 335 276 342h151l-281-342q31-38 67.5-81.5t74-87.5 73-87 65.5-79zM518 176h-151l-274 335 274 342h150l-278-342z" glyph-name="guillemotleft" horiz-adv-x="968" unicode="&#xab;"/><glyph d="M1082 125h-115v386h-776v113h891v-499z" glyph-name="logicalnot" horiz-adv-x="1359" unicode="&#xac;"/><glyph d="M671 1246h-551v119h551v-119z" glyph-name="softhyphen" horiz-adv-x="832" unicode="&#xad;"/><glyph d="M866-37q-298 0-512 209-210 210-210 507 0 299 212.5 509t507.5 210q297 0 510.5-210.5t213.5-506.5q0-297-211.5-507.5t-510.5-210.5zM864 69q256 0 435 179t179 431-180.5 432.5-433.5 180.5q-249 0-430-181t-181-432q0-246 179-431 185-179 432-179zM1230 215h-136l-113 243q-23 48-45 81-54 80-131 80h-94v-404h-121v946h267q158 0 242-69 88-73 88-187 0-200-207-260 61-38 119-154zM878 720q86 0 136 47.5t50 121.5q0 171-209 171h-144v-340h167z" glyph-name="registered" horiz-adv-x="1804" unicode="&#xae;"/><glyph d="M671 1246h-551v119h551v-119z" glyph-name="macron" horiz-adv-x="859" unicode="&#xaf;"/><glyph d="M374 865q-105 0-181 75-76 78-76 182 0 102 75.5 177.5t178.5 75.5q106 0 181-75t75-178q0-108-74.5-182.5t-178.5-74.5zM371 971q58 0 100.5 43.5t42.5 107.5q0 63-41.5 105t-98.5 42q-59 0-102-43.5t-43-103.5q0-62 42-106.5t100-44.5z" glyph-name="degree" horiz-adv-x="810" unicode="&#xb0;"/><glyph d="M694 195h-114v389h-389v114h389v388h114v-388h388v-114h-388v-389zM1082-14h-891v114h891v-114z" glyph-name="plusminus" horiz-adv-x="1318" unicode="&#xb1;"/><glyph d="M578 538h-524v118l231 226q105 104 140 163 30 52 30 110 0 127-132 127-100 0-226-113v144q119 81 231 81 116 0 182-62.5t66-165.5q0-36-11-75t-36.5-82.5-66-93.5-98.5-108q-38-37-78-74.5t-79-75.5h371v-119z" glyph-name="twosuperior" horiz-adv-x="697" unicode="&#xb2;"/><glyph d="M263 514q-105 0-200 52v131q120-73 202-73 78 0 121 39.5t43 105.5q0 142-205 142h-83v110h75q186 0 186 145 0 113-128 113-63 0-179-62v124q100 49 196 49 106 0 167.5-58t61.5-154q0-143-115-204 139-52 139-205 0-113-73-182-77-73-208-73z" glyph-name="threesuperior" horiz-adv-x="697" unicode="&#xb3;"/><glyph d="M209 1109h-127l246 343h141z" glyph-name="acute" horiz-adv-x="522" unicode="&#xb4;"/><glyph d="M263-383h-121v1371h121v-555q0-187 61.5-272t190.5-85q130 0 205 93 79 95 79 254v565h121v-1002h-121v137q-111-160-298-160-154 0-238 93v-439z" glyph-name="mu" horiz-adv-x="1116" unicode="&#xb5;"/><glyph d="M263-383h-121v1371h121v-555q0-187 61.5-272t190.5-85q130 0 205 93 79 95 79 254v565h121v-1002h-121v137q-111-160-298-160-154 0-238 93v-439z" glyph-name="mu" horiz-adv-x="1116" unicode="&#x3bc;"/><glyph d="M711-14h-115v1274h-153v-1274h-116v854q-97 7-164 76-71 79-71 190 0 122 77 195.5t181 73.5h485v-115h-124v-1274z" glyph-name="paragraph" horiz-adv-x="972" unicode="&#xb6;"/><glyph d="M224 594q-34 0-59.5 22.5t-25.5 62.5q0 38 25.5 60t57.5 22q35 0 61.5-23.5t26.5-58.5q0-38-24.5-61.5t-61.5-23.5z" glyph-name="periodcentered" horiz-adv-x="526" unicode="&#xb7;"/><glyph d="M124-424q-28 0-93 5v105q59-8 99-8 134 0 134 70 0 65-120 65-18 0-78-4v211h102v-110q213-9 213-156 0-178-257-178z" glyph-name="cedilla" horiz-adv-x="432" unicode="&#xb8;"/><glyph d="M582 538h-479v111h184v605l-197-66v118l313 101v-758h179v-111z" glyph-name="onesuperior" horiz-adv-x="688" unicode="&#xb9;"/><glyph d="M397 644q-157 0-251.5 105.5t-94.5 267.5q0 176 97.5 276.5t253.5 100.5 248-102 92-273q0-162-92.5-268.5t-252.5-106.5zM399 755q104 0 161.5 71t57.5 195q0 123-58 195-55 68-160 68-102 0-164-72.5t-62-196.5q0-120 62-190t163-70z" glyph-name="ordmasculine" horiz-adv-x="850" unicode="&#xba;"/><glyph d="M519 176h-152l282 342q-68 82-282 335h152l275-335zM221 176h-155l283 342-283 335h153l274-335z" glyph-name="guillemotright" horiz-adv-x="996" unicode="&#xbb;"/><glyph d="M594 538h-479v111h184v605l-197-66v118l313 101v-758h179v-111zM426-14h-132l835 1389h130zM1310-14h-111v207h-372v83l372 547h111v-522h104v-108h-104v-207zM1199 301v341l-227-341h227z" glyph-name="onequarter" horiz-adv-x="1525" unicode="&#xbc;"/><glyph d="M595 538h-479v111h184v605l-197-66v118l313 101v-758h179v-111zM427-14h-132l835 1389h130zM1485-14h-523v118l231 226q95 95 134 160 35 59 35 113 0 128-132 128-99 0-226-113v144q118 80 232 80 116 0 181.5-62t65.5-165q0-81-42-155-49-86-170-203l-155-152h369v-119z" glyph-name="onehalf" horiz-adv-x="1620" unicode="&#xbd;"/><glyph d="M275 514q-105 0-199 52v131q119-73 201-73 78 0 121.5 39.5t43.5 105.5q0 142-205 142h-84v110h75q186 0 186 145 0 113-127 113-62 0-180-62v124q100 49 197 49 105 0 166.5-58t61.5-154q0-143-114-204 139-52 139-205 0-112-74-182-77-73-208-73zM426-14h-133l835 1389h131zM1310-14h-112v207h-371v83l371 547h112v-522h104v-108h-104v-207zM1198 301v341q-13-21-226-341h226z" glyph-name="threequarters" horiz-adv-x="1534" unicode="&#xbe;"/><glyph d="M465-424q-152 0-246 83-98 86-98 232 0 99 56 189 33 54 121 139 103 99 127 133 32 45 32 104 0 38-11.5 89.5t-17.5 66.5h112q7-20 17.5-69.5t10.5-85.5q0-87-45-157-34-52-122-129-72-65-106-115-50-73-50-156 0-94 61-149.5t160-55.5q85 0 156 31 78 32 166 104v-145q-143-109-323-109zM495 819q-41 0-68 25t-27 67q0 40 27 67t68 27q40 0 65.5-27t25.5-67q0-42-25.5-67t-65.5-25z" glyph-name="questiondown" horiz-adv-x="904" unicode="&#xbf;"/><glyph d="M946 171l-315 318-316-318-80 80 316 315-316 318 80 79 316-316q37 38 315 316l80-79-316-318 316-315z" glyph-name="multiply" horiz-adv-x="1354" unicode="&#xd7;"/><glyph d="M638 804q-36 0-63.5 27.5t-27.5 63.5q0 38 27 63.5t64 25.5q38 0 63-25.5t25-63.5q0-37-25-64t-63-27zM1082 511h-891v113h891v-113zM638 151q-37 0-64 27t-27 63q0 38 27 63.5t64 25.5q38 0 63-25.5t25-63.5q0-37-25-63.5t-63-26.5z" glyph-name="divide" horiz-adv-x="1318" unicode="&#xf7;"/><glyph d="M176-277q-41 0-84 18v112q61-19 81-19 151 0 189 291l89 653h-96v111h111l31 204q20 135 98 210 75 72 191 72 38 0 94-14v-119q-54 22-82 22-148 0-179-175-7-54-14-99.5t-14-100.5h160v-111h-175l-92-651q-32-218-105-307-79-97-203-97z" glyph-name="florin" horiz-adv-x="1053" unicode="&#x192;"/><glyph d="M600 1109h-122l-139 211q-35-52-72-106.5t-70-104.5h-117l230 351h61z" glyph-name="circumflex" horiz-adv-x="760" unicode="&#x2c6;"/><glyph d="M387 1109h-60l-230 351h121l141-213q35 53 71.5 107.5t69.5 105.5h119z" glyph-name="caron" horiz-adv-x="787" unicode="&#x2c7;"/><glyph d="M277 1109q-87 0-147 51.5t-60 138.5q0 83 60 137 56 54 147 54 89 0 148-52.5t59-138.5q0-83-61-138-61-52-146-52zM277 1206q47 0 76 26t29 67q0 46-30.5 70t-74.5 24q-46 0-74.5-26t-28.5-68 29.5-67.5 73.5-25.5z" glyph-name="ring" horiz-adv-x="603" unicode="&#x2da;"/><glyph d="M122 1109h-102q0 117 49.5 179.5t133.5 62.5q75 0 162-71 60-52 100-52 31 0 52 38.5t21 98.5h104q0-121-50-182-56-63-136-63-68 0-154 76-56 48-101 48-79 0-79-135z" glyph-name="tilde" horiz-adv-x="702" unicode="&#x2dc;"/><glyph d="M1005 23q-252 0-445 170-34 25-72 67-219 238-335 626l111 34q88-285 236-491 78-102 133-147 167-143 366-143 27 0 59 3 131 12 206 114 59 77 59 153 0 30-15 82t-52 98q-111-60-258-60-30 0-74 4l12 117q40-5 68-5 29 0 60 4 218 28 268 199 13 50 13 91 0 90-53 178-75 129-249 168-29 4-61 4-111 0-196-66-37-29-56-90-11-37-11-59 0-82 48-121v11q0 63 44 106.5t106 43.5 106-43.5 44-106.5-44-107q-27-30-53-40-49-23-99-23-58 0-116 29-113 60-136 160-15 39-15 89 0 96 52.5 177.5t165.5 126.5q75 29 150 29 63 0 96-6 219-52 324-223 66-114 66-245 0-152-88-254 78 15 143 97 42 53 59 100 66 196 213 261 64 29 138 29 86 0 141-25 148-63 193-199 18-46 18-105 0-52-14-92-50-145-159-191-48-22-105-22-121 0-187 75-44 50-44 124 0 39 16 78 49 86 144 93 68 0 112-43.5t44-106.5q0-55-35-96l9 4q57 25 95 122 8 35 8 54 0 20-5 43-21 105-137 154-44 20-90 20-172 0-246-218-26-65-77-130-85-103-200-136 35-75 35-157 0-46-10-79-4-50-71-142-122-166-353-166zM1615 1250q-131 0-226 92-79 82-94 220h109q11-90 64-140 61-64 147-64 84 0 147 63 52 50 64 141h107q-16-139-94-221-96-91-224-91zM1618 1482q-39 0-66 27-30 30-30 67 0 36 29 66t67 30q36 0 65.5-29.5t29.5-66.5q0-38-28-66t-67-28z" glyph-name="uni0950" horiz-adv-x="2460" unicode="&#x950;"/><glyph d="M748 192h-121v1089h121v-1089z" glyph-name="uni0964" horiz-adv-x="1005" unicode="&#x964;"/><glyph d="M522 192h-120v1089h120v-1089zM910 192h-120v1089h120v-1089z" glyph-name="uni0965" horiz-adv-x="1148" unicode="&#x965;"/><glyph d="M-511 1690q-132 0-230 96-77 80-93 219h114q9-89 59-136 65-68 150-68 82 0 149 67 48 43 58 137h113q-18-141-98-227-91-88-222-88zM-509 1921q-40 0-68.5 29.5t-28.5 67.5q0 37 30 67t67 30q39 0 68.5-30t29.5-67q0-38-29.5-67.5t-68.5-29.5z" glyph-name="uni0981" unicode="&#x981;"/><glyph d="M1033-43l-280 202q-543 388-687 496l68 90 183-132q350-256 791-570l-26-27q-19-31-49-59zM638 785q67 0 116 45 48 48 48 117 0 68-47.5 115t-116.5 47-115-46.5-46-115.5 47-117q48-45 114-45zM638 669q-116 0-194 82-82 81-82 196 0 114 82 196 78 80 194 80 115 0 195-79 85-82 85-197 0-116-85-197v2q-82-83-195-83z" glyph-name="uni0982" horiz-adv-x="1127" unicode="&#x982;"/><glyph d="M379 1023q42 0 72.5 30t30.5 71q0 39-32 71-34 30-71 30-40 0-77-32-31-30-31-69 0-41 31-71t77-30zM379 921q-90 0-151 60-61 55-61 143 0 87 67 148l2-1q61 56 143 56 87 0 148-61t61-142q0-86-61-143-60-60-148-60zM379 290q44 0 73.5 30t29.5 70q0 45-29.5 75t-73.5 30q-45 0-75-29-33-33-33-76 0-36 30-67l-3 4q46-37 81-37zM379 188q-90 0-151 60-61 56-61 142 0 88 64.5 147.5t147.5 59.5q87 0 148-59 61-64 61-148 0-80-61-143-61-59-148-59z" glyph-name="uni0983" horiz-adv-x="781" unicode="&#x983;"/><glyph d="M1939-28h-116v509q-121 80-293 124-5-34-15-83-17-87-101-193-188-215-505-215-175 0-356 105-313 190-431 656 96 24 111 29 110-432 388-593 143-80 279-80 272 0 416 162 79 93 94 174 18 95 18 166 0 187-119 303-133 128-290 128-9 0-27-2-7-1-21.5-3t-37.5-7q-41-6-91.5-43.5t-81.5-104.5q-21-48-21-90 0-64 45-112 17-18 36-30-5 20-5 42 0 67 48 115t115 48q68 0 115.5-48t47.5-115q0-68-48-116-21-21-47-33-58-38-131-38-121 0-215 95-77 77-77 201 0 69 28 127 101 186 265 213 33 10 89 10 59 0 116-12 130-24 263-142 150-162 156-396 131-28 283-104v780h-1939v111h2358v-111h-303v-1427z" glyph-name="uni0985" horiz-adv-x="2164" unicode="&#x985;"/><glyph d="M2393-28h-115v1427h-339v-1427h-116v509q-121 80-293 124-5-34-15-83-17-87-101-193-188-215-505-215-175 0-356 105-313 190-431 656 96 24 111 29 110-432 388-593 143-80 279-80 272 0 416 162 79 93 94 174 18 95 18 166 0 187-119 303-133 128-290 128-9 0-27-2-7-1-21.5-3t-37.5-7q-41-6-91.5-43.5t-81.5-104.5q-21-48-21-90 0-64 45-112 17-18 36-30-5 20-5 42 0 67 48 115t115 48q68 0 115.5-48t47.5-115q0-68-48-116-21-21-47-33-58-38-131-38-121 0-215 95-77 77-77 201 0 69 28 127 101 186 265 213 33 10 89 10 59 0 116-12 130-24 263-142 150-162 156-396 131-28 283-104v780h-1939v111h2751v-111h-242v-1427z" glyph-name="uni0986" horiz-adv-x="2588" unicode="&#x986;"/><glyph d="M1091-77q-597 276-990 411l30 106q122-21 214-21 173 0 330 67 281 122 281 363 0 111-53 203-133 172-332 172-84 0-138-21-140-58-183-190-11-31-11-81 0-25 3-46 63-166 223-166l24 1q-12 8-22 19-44 44-44 106 0 63 44 106.5t106 43.5 106-44q35-34 42-81 7-22 7-45 0-135-155-202l1 1q-43-19-110-19-28 0-59 6-104 20-180 96-54 53-81 130l-4 4q-12 52-12 90 0 36 8 72 43 208 258 301 86 30 171 30 266 0 429-217 73-113 73-271 0-160-122-309-157-176-483-224 292-112 679-291zM1395 1399h-1486v111h1122q26 102 26 162 0 289-347 359-74 10-123 10-251-18-487-196l-73 84q140 100 282.5 159t295.5 59q60 0 122-9 269-47 383-235 56-98 56-228 0-77-21-165h250v-111z" glyph-name="uni0987" horiz-adv-x="1307" unicode="&#x987;"/><glyph d="M1456-77h-50q-92 0-175.5 37t-147.5 101q-37 48-65 112.5t-41 125.5q-9 79-9 140 0 161 43 301-57-54-103-99-78-75-120-113-50-46-98-93-87-86-152-148-46-43-92-88-23-22-49.5-47t-53-50.5-52.5-50-48-46.5q-58 58-67 67.5t-11 11.5l429 415-1-2q166 182 188 368 2 8 2 29 0 83-19 134-74 161-211 191-50 4-67 4-34 0-71-9-71-21-120-66-90-83-90-208 0-58 49-130 55-84 162-84 34 0 51 3-28 11-50 34-44 44-44 106t44 106 106 44q63 0 106-44 54-57 54-138 0-20-4-39-25-117-159-166-58-18-105-18-73 0-147 38-117 62-168 214v13q-6 26-6 64 0 85 38 169 72 149 254 210 50 13 99 13 68 0 139-28 154-52 242-236 30-66 30-151 0-75-17-151 338 324 474 458l83-75-179-173q-83-102-131-237t-48-290q0-79 7-144 17-91 66-156 91-121 255-121h36zM1606 1399h-1700v111h1242q25 95 25 162 0 291-347 359-74 10-122 10-252-18-488-196l-73 84q138 99 281.5 158.5t297.5 59.5q67 0 121-9 269-47 383-235 57-97 57-228 0-73-22-165h345v-111z" glyph-name="uni0988" horiz-adv-x="1533" unicode="&#x988;"/><glyph d="M1001 24q-165 0-362 119-322 173-556 782l98 53q118-320 255-495 141-180 258-242 175-104 306-104 126 0 215 98 47 51 71 119 31 103 48 215.5t17 273.5q-282-109-414-126-43-10-85-10-96 0-141 63-29 41-29 100 0 91 82 231 100 156 260 298h-1134v111h1325q25 98 25 162 0 197-164 293-79 45-182 66-74 10-123 10-252-18-488-196l-72 84q300 218 578 218 60 0 122-9 268-47 382-235 57-97 57-228 0-73-22-165h437v-111h-544q-38-29-65-46-187-137-296-310-67-120-67-169 0-54 58-54 38 0 70 8 187 26 454 148 13 4 25 11l4 2 47 25 7-84q8-74 8-146 0-218-71-463-56-193-249-272-75-25-145-25z" glyph-name="uni0989" horiz-adv-x="1657" unicode="&#x989;"/><glyph d="M1128 30q-142 0-326 95-158 79-235 141-133 104-186 174-12 14-20 22-5 5-12.5 15t-20.5 25q-44 51-108 147-18 26-91 164l99 56 62-123q38-73 92-155 51-74 78-105 80-94 179-170-117 124-177 244-4 7-7 10-14 28-22 42-47 88-79 165-13 27-61 180l119 39q43-187 58-229.5t31-75.5q40-89 57-120 20-35 77-116 194-279 496-312 60 0 100 19 137 52 185 198 64 216 64 485-257-99-415-127-24-7-80-7-51 0-88 17-91 40-91 146 0 90 82 230 100 148 265 295h-1216v111h1351q25 85 25 162 0 197-164 293-79 45-182 66-74 10-123 10-252-18-488-196l-72 84q300 218 578 218 60 0 122-9 268-47 382-235 57-97 57-228 0-77-22-165h466v-111h-506q-232-132-373-353-69-114-69-170 0-23 10-37.5t49-14.5q99 0 271 57 115 38 333 118 15-121 15-211 0-202-72-461-32-93-98-163.5t-153-106.5q-75-27-146-27z" glyph-name="uni098A" horiz-adv-x="1786" unicode="&#x98a;"/><glyph d="M1034 113v1039q-390-312-584-466l-198-158q115-95 239-172 282-171 543-243zM1569-28h-115v511q-136 90-306 126v-637h-114v22q-291 67-605 264-225 138-351 275l714 580q-33 131-152 252-21-177-110-251-87-75-212-75-67 0-129 39-50 30-80 80-22 44-22 83l1 15q0 74 44.5 119t108.5 45 109-45 45-109-45-109q60 7 104 46 71 60 71 185 0 52-12 112l81 31q34-13 46-21 170-104 251-319l143 114v269h114v-845q155-25 306-106v951h115v-64h253v-111h-253v-1427z" glyph-name="uni098B" horiz-adv-x="1767" unicode="&#x98b;"/><glyph d="M622 78q-35 0-80 4 22 74 25 109 17 72 17 125 0 70-20 123-32 112-109 159-52 25-82 25-45 0-91-38 47-7 82-42 44-43 44-106 0-62-44-106t-106-44-106 44q-31 30-40 69-5 10-5 42 0 44 12.5 93t62.5 108.5 151 84.5q26 4 45 4 68 0 131-39 108-67 152-191 33-84 33-172 0-36-18-137 206 36 284 187 37 57 37 130 0 34-12 79-29 75-103 148.5t-184 127.5q-149 73-245 200-90 129-90 269 0 40 10 98 4-2 103-36-5-30-5-37 0-3 .5-3.5t.5-15.5q0-141 109-259 67-69 165-117 283-136 345-347 17-55 17-110 0-93-53-186-126-243-433-243z" glyph-name="uni098C" horiz-adv-x="1211" unicode="&#x98c;"/><glyph d="M1410-28h-128v25q-76 85-160.5 137t-157.5 70q-29 6-83 6-80 0-192-16-128-14-194-14-104 11-191 62.5t-141 142.5q-83 129-99 320l119 2q10-119 47-201 39-94 111-147t163-62q72 0 167 10 129 18 215 18 53 0 99-8 80-19 162-58 77-41 145-98v968q-165 199-356 233-45 5-71 5-57 0-102-15-179-63-231-224-19-52-19-117 0-20 3-44 56-189 216-189 102 0 149 52-24-9-52-9-62 0-106 44t-44 106q0 63 44 106.5t106 43.5q34 0 56-8 72-22 101-70.5t32.5-78.5 3.5-50q0-22-3-43-24-140-157-192-54-17-121-17-103 0-173 43-124 66-167 240-5 38-5 71 0 93 40 193 82 178 288 254 66 22 130 22 47 0 103-10 260-47 453-308v-1195z" glyph-name="uni098F" horiz-adv-x="1616" unicode="&#x98f;"/><glyph d="M1409-28h-128v25q-76 85-160.5 137t-157.5 70q-29 6-83 6-78 0-192-16-128-14-194-14-104 11-190.5 62.5t-141.5 142.5q-83 130-98 320 33 0 117 3 9-118 48-202 39-94 111-147t163-62q72 0 167 10 129 18 214 18 54 0 100-8 76-18 162-59 70-36 145-97v968q-165 199-355 233-47 5-70 5-59 0-104-15-177-63-231-224-19-60-19-117 0-20 3-44 56-189 217-189 42 0 89 14 35 15 56 36-22-7-48-7-62 0-106 44t-44 106q0 63 44 106.5t106 43.5q15 0 28-2 50-4 96-44 30-28 46-62 22-49 22-99 0-22-3-43-24-141-157-192-54-17-121-17-101 0-173 43-124 66-167 240-5 38-5 71 0 91 41 193 77 176 288 254 64 22 129 22 39 0 103-11 265-51 453-307v-389q87 20 148 60 147 96 147 274 0 126-64 252-127 247-397 369 11 23 17 41 1 4 5.5 14t13.5 32l5 10q254-114 392-315 137-191 137-407 0-61-19.5-123.5t-49.5-111.5q-91-128-246-184-17-9-89-26v-691z" glyph-name="uni0990" horiz-adv-x="1947" unicode="&#x990;"/><glyph d="M942 59q-252 0-446 170-68 52-153 166-160 216-258 538l111 34q89-294 240-503 73-100 133-147 167-144 369-144 28 0 57 3 131 12 208 115 59 81 59 155 0 43-17 87-18 57-50 93-114-59-269-59-16 0-76 4l12 115q51-6 76-6 62 0 129 17 159 44 204 187 10 40 10 80 0 62-20 123-64 189-280 237-32 6-66 6-104 0-192-68-38-30-57-91-10-34-10-62 0-29 10-57l2-9v5q5-36 39-63-1 10-1 21 0 63 44 106.5t106 43.5 106-43.5 44-106.5q0-46-25-83-7-15-17-26-28-32-57-43-47-22-97-22-54 0-116 30-116 59-139 164-14 42-14 84 0 52 13 91 28 94 97 150 116 91 283 91 45 0 70-6 221-51 325-223 67-116 67-245 0-160-108-275 48-63 69-128.5t21-118.5q0-43-12-78-12-65-71-143-120-166-353-166z" glyph-name="uni0993" horiz-adv-x="1597" unicode="&#x993;"/><glyph d="M946 59q-252 0-445 170-72 56-153 166-164 221-258 538l110 34q45-148 107-275 249-519 636-519 29 0 56 3 131 12 208 115 40 52 52 106 8 26 8 49 0 39-17 87-20 57-50 93-116-59-270-59-19 0-75 4l11 115q51-6 77-6 61 0 128 17 159 44 204 187 11 44 11 80 0 98-51 191-74 129-250 169-32 6-66 6-104 0-192-68-39-32-56-91-11-35-11-62 0-70 49-115v12q0 62 44 106t106 44q63 0 106.5-44t43.5-106q0-61-41-109-59-65-154-65-54 0-116 30-116 59-139 164-14 47-14 84 0 47 13 91 28 95 98 150 101 80 232 90 11 1 50 1 46 0 71-6 221-51 325-223 66-114 66-245 0-73-20-133 211 97 211 305 0 67-29 167-14 41-36 86-125 246-396 368 7 15 10 24 11 32 18.5 46.5t11.5 26.5q255-113 392-314 137-192 137-408 0-61-19.5-123.5t-49.5-111.5q-112-157-337-210 46-57 68-127 21-65 21-118 0-109-82-221-106-144-289-164-30-2-65-2z" glyph-name="uni0994" horiz-adv-x="1945" unicode="&#x994;"/><glyph d="M1149-28h-115v15q-288 67-608 263-230 138-351 279l586 870h-757v111h2085v-111h-625q323-141 397-354 30-76 30-176 0-102-40-171-62-119-195-143-31-6-60-6-100 0-188 65-79 80-79 189 0 18 6 55t35.5 79 81.5 64q33 14 70 14 89 0 138-49 40-40 44-96l1-15h-1q-2-59-45-102t-105-43q-54 0-94 33 30-80 126-80 61 0 109 32 80 54 80 170 0 83-23 139-52 145-263 258-107 54-240 89v-1379zM1034 105v1294h-232l-577-857q111-101 261-193 274-170 548-244z" glyph-name="uni0995" horiz-adv-x="1929" unicode="&#x995;"/><glyph d="M1196-28h-116v12q-271 61-607 266-229 145-350 281l572 480q6 38 6 81-2 109-68 223-21-133-103-202-97-77-217-77-12 0-21 1-126 12-187 117-21 40-21 93 0 79 48 128 45 45 109 45t109-45 45-109q0-63-44-107 60 8 101 42 69 61 69 176 0 57-9 124 73 22 77 24 19-9 74.5-62.5t104-160.5 48.5-227q0-63-11-118l-20-23-492-408q108-90 238-173 280-171 549-243v1464h116v-64h287v-111h-287v-1427z" glyph-name="uni0996" horiz-adv-x="1409" unicode="&#x996;"/><glyph d="M1186-28h-118v924q-96 259-250 382-107 84-179.5 101t-103.5 17q-29 0-44-3-119-22-231-193-35-64-69-180 190 32 300 32 30 0 41-1 146 0 193-87 14-40 14-70 0-85-88-203-78-116-273-268l-64 88q164 125 243 240 71 91 71 143 0 13-3 20-14 26-94 26-135 0-404-42-2-1-71-13l7 74q27 198 140 357 92 146 266 183 38 8 68 8 194-14 338-128 45-32 116-113 39-42 77-108v416h118v-64h283v-111h-283v-1427z" glyph-name="uni0997" horiz-adv-x="1405" unicode="&#x997;"/><glyph d="M1052 117v1282h-642q-99-84-148-158-58-82-58-130 0-12 13-43l-1 3q17-28 151-28 128 0 312 29 10-56 22-112-36-9-41-9l-101-105q-100-106-195-204-50-51-102-106 93-79 246-177 286-176 544-242zM1167-28h-115v25q-282 64-607 260-220 138-348 279l378 395q-105-3-161-3-226 4-226 183 0 84 75 195 17 26 75 93h-305v111h1480v-111h-246v-1427z" glyph-name="uni0998" horiz-adv-x="1353" unicode="&#x998;"/><glyph d="M858 960q40 0 67 27 31 31 31 69 0 34-24 60-45 36-74 36-39 0-61-24-32-31-32-72 0-39 30-69 25-27 63-27zM925 0q-463 0-868 704l99 56q231-410 465-545 174-103 303-103 60 0 96 16 136 52 184 197 61 211 61 475-332-131-477-131-101 0-155 63-45 57-45 138 4 110 43 206-20 64-20 137 0 101 45 202 24 52 86 133 30-36 78-84-93-106-101-257 60 50 142 50 85 0 144.5-60.5t59.5-141.5q0-75-62-146-54-52-141-56-97 1-157 66-3-24-3-48 0-47 17-70 26-21 66-21 13 0 27 .5t99.5 22 143 40 118 42 121 58.5 71.5 45q16-169 16-246 0-215-71-454-28-84-93.5-153.5t-145.5-106.5q-72-28-146-28z" glyph-name="uni0999" horiz-adv-x="1514" unicode="&#x999;"/><glyph d="M387 84q206 0 369 77 201 77 289 285 14 38 14 80 0 17-2 37-16 120-107 198-64 59-195 59-168 0-452-142v-589q30-5 84-5zM386-28q-97 0-194 22v1405h-267v111h1475v-111h-1097v-593q273 124 447 124 191 0 301-113 119-119 119-292 0-67-20-121-99-246-348-344-195-88-416-88z" glyph-name="uni099A" horiz-adv-x="1307" unicode="&#x99a;"/><glyph d="M1375-244q-364 100-663 289l-17-1q-1 3-2.5 10t-27.5 93q193 33 337 86 112 54 125 117 0 40-39 81-49 39-116 49-118-112-253-162-187-70-421-70-51 0-69 2h-41v1149h-266v111h1578v-111h-1200v-338q264 107 422 107 45 0 83-6 111-20 173-74 147-122 147-274 0-69-30-150-23-52-47-89 82-36 109-58 82-69 82-167-8-134-203-222-62-21-165-49 280-148 533-215zM300 357q93 4 197 19 130 22 186 44l5 5q217 72 303 279 21 48 21 105 0 106-103 195h1l-6 6 1-2q-59 51-179 51-164 0-426-122v-580z" glyph-name="uni099B" horiz-adv-x="1386" unicode="&#x99b;"/><glyph d="M1675-36q-145 159-145 495 0 303 166 577-254 57-397.5 172t-176.5 191h-36q-165-134-269-297-66-118-66-169 0-20 13-41 7-13 44-13 38 0 70 8 185 26 455 148 59 29 75 38l8-84q7-65 7-146 0-221-70-463-58-194-250-272-75-25-144-25-166 0-363 119-139 74-283.5 261t-272.5 521l99 53q116-320 255-495 141-180 258-242 175-104 306-104 126 0 215 98 47 51 70 119 32 103 48.5 215.5t16.5 273.5q-282-109-414-126-43-10-85-10-95 0-140 63-30 43-30 100 0 89 83 231 68 105 193 239h-1005v111h2180v-111h-812q114-194 510-274l49-95h-2q-198-281-198-556 0-24 10.5-185.5t116.5-245.5z" glyph-name="uni099C" horiz-adv-x="2000" unicode="&#x99c;"/><glyph d="M1574-28h-115v511q-142 91-300 125v-636h-115v14q-287 64-609 262-211 125-353 281l588 870h-747v111h1236v-783q142-23 300-104v951h115v-64h245v-111h-245v-1427zM1044 108v1291h-230l-576-858q110-97 260-191 267-169 546-242z" glyph-name="uni099D" horiz-adv-x="1759" unicode="&#x99d;"/><glyph d="M1370-28h-116v22q-208 211-403 211-86 0-189-15-135-15-190-15-100 12-185.5 61t-138.5 141q-81 126-97 315l116 1q7-57 18-106.5t29-88.5q39-94 108.5-146.5t160.5-60.5q76 0 163 11 137 17 210 17 24 0 50-2 88-7 202-59 70-33 146-101v950q-161 193-347 228-45 5-70 5-51 0-101-15-172-62-225-219-19-61-19-116 0-22 3-43 32-116 106-156 53-29 105-29 20 0 42 4 55 9 86 31l-18-1q-62 0-106 44t-44 106q0 63 44.5 107t113.5 44q10 0 32-6l7.5-3t4.5-1q64-24 110-106 13-43 13-85 0-164-160-231-50-17-117-17-95 0-170 43-123 73-162 236-5 38-5 69 0 97 39 190 78 175 281 250 73 20 129 20 48 0 101-11 260-48 443-300v-29q70 38 140 38 106 0 180-71 69-69 69-171 0-107-96-193 96-93 96-191 0-104-71-172-72-72-171-72-71 0-147 41v-353zM1512 393q57 0 96.5 40t39.5 99q0 54-41 94l2-1q-36 32-94 44v94q35 7 54.5 18t39.5 28l-1-2q40 39 40 98t-39 97.5-97 38.5q-54 0-101-32l-1-2q-26-20-40-42v-495q52-77 142-77z" glyph-name="uni099E" horiz-adv-x="1894" unicode="&#x99e;"/><glyph d="M447 73q-130 0-215 25h2q-22 7-43 16v1285h-269v111h1151q24 92 24 162 0 290-346 359-74 10-123 10-252-18-488-196l-72 84q300 218 578 218 60 0 122-9 271-47 382-235 57-97 57-228 0-78-20-165h328v-111h-1209v-1201q89-13 148-13 179 0 393 87 100 44 179 118.5t121 176.5q22 52 22 112 0 22-4 42-16 112-98 180-89 75-193 75-17 0-26-1-3-1-7-1-121-16-207-113-43-56-43-112 5-92 67-136-9 25-9 54 0 63 44 106.5t106 43.5q65 0 117-55 34-44 34-101 0-7-2-21-23-125-129-159-38-12-73-12-39 0-76 12-156 60-185 208-8 26-8 63 0 97 69 180 102 133 283 157 11 1 39 1 146 0 271-104 112-97 136-226 8-61 8-80 0-79-31-156-52-122-143-214.5t-219-142.5q-224-94-443-94z" glyph-name="uni099F" horiz-adv-x="1448" unicode="&#x99f;"/><glyph d="M582 182q133 0 251 84 96 77 147 203 29 79 29 158 0 184-148 389-112 169-301 307 66-176 66-318 0-306-277-439l-115-46q3-80 29-140 21-46 56-85 94-113 263-113zM584 70q-56 0-112 10-141 27-237 140-47 51-73 115-41 91-41 185 0 21 1.5 40t1.5 36l182 74q210 104 210 345 0 164-112 384h-506v111h422q-103 128-103 269 0 61 21 124 38 112 130 195 112 100 293 124l12-112q-144-18-229-94-114-104-114-239 0-75 42-150 37-64 102-117h883v-111h-711q198-152 308-319 166-231 166-449 0-106-41-211-66-162-179-243-146-107-316-107z" glyph-name="uni09A0" horiz-adv-x="1281" unicode="&#x9a0;"/><glyph d="M1001 24q-166 0-363 119-322 174-555 782l98 53q114-315 255-495t258-242q175-104 306-104 126 0 215 98 47 51 70 119 32 103 49 215.5t17 273.5q-282-109-414-126-43-10-85-10-96 0-141 63-29 41-29 100 0 91 82 231 91 141 269 298h-1143v111h1855v-111h-524q-17-12-32.5-23.5t-32.5-22.5q-189-138-297-310-66-118-66-169 0-20 13-41 7-13 45-13 97 0 276 58 173 56 324 136l7-84q8-74 8-146 0-218-71-463-58-193-249-272-77-25-145-25z" glyph-name="uni09A1" horiz-adv-x="1651" unicode="&#x9a1;"/><glyph d="M447 73q-130 0-215 25h2q-22 7-43 16v1285h-269v111h1593v-111h-1209v-1201q89-13 148-13 179 0 393 87 100 44 179 118.5t121 176.5q22 52 22 112 0 22-4 42-16 112-98 180-89 75-193 75-17 0-26-1-3-1-7-1-121-16-207-113-43-56-43-112 5-92 67-136-9 25-9 54 0 63 44 106.5t106 43.5q65 0 117-55 34-44 34-101 0-7-2-21-23-125-129-159-38-12-73-12-39 0-76 12-156 60-185 208-8 26-8 63 0 97 69 180 102 133 283 157 11 1 39 1 146 0 271-104 112-97 136-226 8-61 8-80 0-79-31-156-52-122-143-214.5t-219-142.5q-224-94-443-94z" glyph-name="uni09A2" horiz-adv-x="1427" unicode="&#x9a2;"/><glyph d="M1213-28h-117v1095q-104 137-222 229-144 94-291 94-68 0-121-14-6-2-23.5-7.5t-75.5-36.5q-198-108-198-301 0-74 22-135 37-153 209-207 28-9 63-9 124 0 196 62 56 50 56 111 0 9-1 17-4-6-10-12-45-45-108-45-64 0-109 45t-45 109 45 108q46 48 122 48 56 0 119.5-43.5t98.5-162.5q8-35 8-65 0-114-95-197-113-92-274-92-52 0-102 12-113 37-187.5 109.5t-101.5 177.5q-26 90-26 168 0 111 54 207 51 97 143 164 149 108 343 108 61 0 125-17 212-56 386-244v326h117v-64h288v-111h-288v-1427z" glyph-name="uni09A3" horiz-adv-x="1423" unicode="&#x9a3;"/><glyph d="M901 76q-178 0-356 103-314 190-435 660l116 20q107-418 388-587 140-78 283-78 269 0 412 161 75 90 93 174 15 75 15 148 0 62-11 124-30 128-104 196-109 107-228 121-29 7-60 7-30 0-57-8h-6q-137-23-203-155-18-34-18-84 0-60 37-108 20-19 41-32-2 14-2 29 0 67 47.5 115t115.5 48q67 0 115-48t48-115q0-68-48-116-32-31-72-42-56-22-103-22-120 0-218 92-46 53-65 115-12 37-12 73 0 62 29 147l1 4q95 182 288 216 44 8 78 8 74 0 157-24 99-29 215-131 151-168 151-411 0-235-126-385-182-215-506-215zM1789 1399h-1857v111h1857v-111z" glyph-name="uni09A4" horiz-adv-x="1716" unicode="&#x9a4;"/><glyph d="M1131-28h-117v14q-284 65-606 262-221 129-353 278l470 501q19 63 19 105 0 69-37 141-49 104-173 104-62 0-107-36l16 1q62 0 106-43.5t44-106.5q0-60-42-104-47-47-121-47-62 0-112 56-29 30-43 73t-14 81q15 120 87 181 78 63 185 63 27 0 47-2 162-27 235-167 48-100 48-192 0-76-33-163-5-10-7-12t-17-22l-386-410q221-187 521-319 156-70 273-101v1467h115v-64h257v-111h-255v-1427z" glyph-name="uni09A5" horiz-adv-x="1316" unicode="&#x9a5;"/><glyph d="M1044-28h-118v981q-353-384-742-430v876h-260v111h1407v-111h-1027v-738q244 69 439 264 146 148 206 272l109-45-14-28v-1152z" glyph-name="uni09A6" horiz-adv-x="1238" unicode="&#x9a6;"/><glyph d="M1128-28h-115v14q-284 65-609 262-228 142-350 278l389 586q-156 9-279 117-100 97-100 218 0 48 8 72 11 58 44 106 80 117 216 117 28 0 80-10 97-34 124-114 15-42 15-76 0-66-44-110t-106-44-106 44-44 106q0 41 18 73-26-10-55-54-33-48-33-108 0-72 64-133 87-89 205-89 36 0 76 10 90 132 184 273h703v-111h-285v-1427zM1013 101v1298h-239q-240-358-427-641-71-108-144-217 233-198 538-337 155-71 272-103z" glyph-name="uni09A7" horiz-adv-x="1333" unicode="&#x9a7;"/><glyph d="M1236-28h-119v680q-88 127-212 213-141 96-290 96-113 0-220-60-108-64-159-151-37-69-37-156 0-164 99-254 55-51 134-82 23-8 59-8 34 0 64 5 86 16 133 58 57 48 57 112l-1 13q-46-46-108-46t-106 44-44 106q0 68 59 120 13 11 36 20 23 8 59 11 55 0 107-35 81-46 108-175 0-4 1-6v3q7-40 7-58 0-116-94-198-100-91-271-91-56 0-106 12-110 38-185.5 111t-104.5 178q-23 80-23 162 0 119 53 212 109 196 332 252 96 20 155 20 287-19 498-239v558h-1179v111h1593v-111h-295v-1427z" glyph-name="uni09A8" horiz-adv-x="1448" unicode="&#x9a8;"/><glyph d="M641 798q160 208 367 292-84 137-167 197-153 121-291 121-12 0-23-1-162-14-251-149-72-93-103-210 96 31 168 31 129 0 207-83 70-75 93-198zM1234-28h-114v885q-27 72-57 132-195-74-367-311-93-130-147-268l-108 42q39 95 96 194l1 14q-1 5-1 13 0 168-72 243-45 46-117 48-119-12-227-62-6-3-19.5-9.5t-28-14-27.5-13.5-19-9l12 103q22 200 144 366 108 162 301 192 25 5 68 5 180 0 358-144 121-92 210-249v445h114v-64h251v-111h-251v-1427z" glyph-name="uni09AA" horiz-adv-x="1426" unicode="&#x9aa;"/><glyph d="M1460 804q7-1 13-2 41-9 73-41 44-44 44-106t-44-106-106-44q-47 0-84 25 12-22 35-44 49-43 92-43 12 0 23 3 174 44 174 239 0 66-21 126-62 241-499 329v-1168h-118v19q-660 183-968 529l401 511q-139 261-425 368h-176v111h2107v-111h-1672q83-64 152-147 96-117 152-238l-381-484q94-85 256-191 197-118 554-222v1159q80-10 182-32 109-25 173-48 150-61 246-152 156-147 156-362 0-105-50-196-70-123-214-156-15-3-40-3-93 0-182 71-50 50-66 100-19 48-19 89 0 16 5 42 21 116 123 161 48 17 85 17h1q4-1 18-3z" glyph-name="uni09AB" horiz-adv-x="1928" unicode="&#x9ab;"/><glyph d="M1048 107v1292h-229q-572-848-576-856 100-93 258-194 276-170 547-242zM1164-28h-116v15q-286 66-607 262-221 131-352 279l585 871h-755v111h1542v-111h-297v-1427z" glyph-name="uni09AC" horiz-adv-x="1377" unicode="&#x9ac;"/><glyph d="M1028 86q-97 0-188 30-152 49-283 169-308 282-471 724l109 39q146-402 440-675 183-170 394-170 168 0 269 125 38 52 46 83 54 153 54 304 0 45-4 87-161-132-345-171-46-8-89-8-130 0-224 73-113 88-113 248 0 80 36 151 64 119 205 142 22 5 46 5 35 0 71-10 73-22 114-67 57-63 57-139 0-75-43.5-128.5t-115.5-53.5q-77 0-123 48-44 44-44 106t44 106q11 11 24 19-5 0-9-1-99-15-133-105-13-40-13-79 0-98 68-150 62-47 155-47 35 0 67 5 188 41 364 212l72 69 26-96q27-100 27-212 0-161-62-344-17-56-65-120-92-114-250-156-52-13-113-13zM1739 1399h-1811v111h1811v-111z" glyph-name="uni09AD" horiz-adv-x="1681" unicode="&#x9ad;"/><glyph d="M1250-28h-120v680q-45 66-96 119-187 190-401 190-57 0-109-13-22-6-64-25-143-64-205-173-40-74-40-154 0-52 23-136 21-70 76-121 91-86 200-86l32 1q55 3 110 27 96 41 104 148 0 24-2 26-44-63-122-63-62 0-106 44t-44 106q0 63 42.5 105t100.5 45q15 2 34 3 53 0 92-24 89-57 117-185 2-15 4.5-32t2.5-28q0-55-25-106-88-182-339-185-58 0-104 13-233 73-288 287-25 90-25 166 0 114 53 207 84 156 301 242-79 220-305 349h-250v111h1661v-111h-308v-1427zM1130 843v556h-765q63-58 113-136 65-104 91-189 23 3 64 3 122 0 250-57t247-177z" glyph-name="uni09AE" horiz-adv-x="1470" unicode="&#x9ae;"/><glyph d="M1066 116v1283h-735q207-176 302-391l-382-474q111-100 259-190 195-118 556-228zM1185-28h-119v15q-668 192-974 535l405 503q-80 135-189 232-116 101-243 142h-144v111h1547v-111h-283v-1427z" glyph-name="uni09AF" horiz-adv-x="1386" unicode="&#x9af;"/><glyph d="M1032 107v1292h-229q-572-848-576-856 100-93 258-194 276-170 547-242zM1148-28h-116v15q-286 66-607 262-221 131-352 279l585 871h-755v111h1542v-111h-297v-1427zM379-212q-57 0-91 34t-34 91q0 56 34 90.5t91 34.5q55 0 89-34t34-91-34-91-89-34z" glyph-name="uni09B0" horiz-adv-x="1365" unicode="&#x9b0;"/><glyph d="M1470-28h-116v852q-108 191-204 191-57 0-125-128 26-50 37-93l-108-29q-22 58-49 99-128 191-322 191-62 0-139-22-82-38-151-122-81-107-81-233 0-72 26-155 53-140 196-168 41-8 70-8 75 0 158 105 11 25 14 52-44-43-105-43-62 0-106 44t-44 106q0 63 45 107.5t123 44.5q63 0 128-52 77-62 77-190 0-107-71-191-75-101-233-101-45 0-81 9-197 43-286 248-29 95-29 193 0 138 75 260 88 144 243 208 93 28 182 28 191 0 358-178 49 70 95.5 102t97.5 34q107-2 209-102v368h-1448v111h1823v-111h-259v-1427z" glyph-name="uni09B2" horiz-adv-x="1670" unicode="&#x9b2;"/><glyph d="M96 1174q36 26 86 26 62 0 106-43.5t44-106.5q0-62-44-106t-106-44q-16 0-31 2 54-45 101-45 9 0 18 2 88 20 124 86 24 55 24 97 0 50-23 111-99 248-406 248v109q198-3 317-70 103-59 168-180 114 162 273 162h11q189-12 333-202v354h117v-64h279v-111h-279v-1427h-117v1000q-31 94-92 183-108 155-245 155-147 0-210-157-22-55-22-112 0-45 23-98v2q33-58 127-88 69 0 113 44l-24-1q-63 0-106.5 44t-43.5 106 43.5 106 106.5 44q21 0 43-7v1q4-1 7-3 15-5 30-13 14-9 24-19 49-40 63-103 9-31 9-59 0-39-19-84-24-56-65-95-74-72-174-72-23 0-39 4-92 21-170 112-90-90-179-114-5-2-31-2-98 0-177 71-37 37-62 95-19 55-19 85 0 117 94 177z" glyph-name="uni09B6" horiz-adv-x="1413" unicode="&#x9b6;"/><glyph d="M1046 758v641h-735q162-137 250-290 145-77 246-151 118-87 239-200zM1046 116v454q-67 102-182 199-112 94-286 196l-347-431q112-101 260-190 193-118 555-228zM1165-28h-119v15q-387 112-617 255-233 141-357 280l405 503q-80 135-189 232-116 101-243 142h-144v111h1547v-111h-283v-1427z" glyph-name="uni09B7" horiz-adv-x="1363" unicode="&#x9b7;"/><glyph d="M1382-28h-119v349q-91 149-220.5 222t-303.5 75q-27-102-71-166-89-113-250-134h-14q-134 0-237 120-43 55-59 127-10 40-10 73 0 22 4 43 27 142 177 205l34-111q-68-36-85-89-12-23-12-50 0-22 6.5-45.5t16-44.5 19.5-32q61-76 146-78 115 15 170 87 71 99 71 237 0 53-11 119-64 347-444 520h-249v111h1702v-111h-261v-1427zM1263 521v878h-835q115-87 194-202 108-152 129-299 8-47 8-101l-2-63q305-13 506-213z" glyph-name="uni09B8" horiz-adv-x="1579" unicode="&#x9b8;"/><glyph d="M1091-77q-597 276-990 411l30 106q122-21 214-21 173 0 330 67 281 122 281 363 0 111-53 203-133 172-332 172-84 0-138-21-140-58-183-190-11-31-11-81 0-25 3-46 63-166 223-166l24 1q-12 8-22 19-44 44-44 106 0 63 44 106.5t106 43.5 106-44q35-34 42-81 7-22 7-45 0-135-155-202l1 1q-43-19-110-19-28 0-59 6-104 20-180 96-54 53-81 130l-4 4q-12 52-12 90 0 36 8 72 43 208 258 301 86 30 171 30 266 0 429-217 73-113 73-271 0-160-122-309-157-176-483-224 292-112 679-291zM1358 1399h-1455v111h1455v-111z" glyph-name="uni09B9" horiz-adv-x="1257" unicode="&#x9b9;"/><glyph d="M-891-446q-57 0-91 34t-34 91q0 56 34 90.5t91 34.5q55 0 89-34t34-91-34-91-89-34z" glyph-name="uni09BC" unicode="&#x9bc;"/><glyph d="M861-77q-597 276-990 411l30 106q122-21 214-21 173 0 330 67 281 122 281 363 0 111-53 203-133 172-332 172-84 0-138-21-140-58-183-190-11-31-11-81 0-25 3-46 63-166 223-166l24 1q-12 8-22 19-44 44-44 106t44 106 106 44 106-44q34-35 41-80 8-23 8-46 0-135-155-202l1 1q-43-19-110-19-28 0-59 6-104 20-180 96-54 53-81 130l-4 4q-12 52-12 90 0 36 8 72 43 208 258 301 86 30 171 30 266 0 429-217 73-113 73-270 0-161-122-310-157-176-483-224 292-112 679-291zM497 1399h-830v111h830v-111z" glyph-name="uni09BD" horiz-adv-x="921" unicode="&#x9bd;"/><glyph d="M289-28h-115v1427h-238v111h595v-111h-242v-1427z" glyph-name="uni09BE" horiz-adv-x="463" unicode="&#x9be;"/><glyph d="M301-28h-115v1427h-238v111h220q-27 164-27 246 0 102 18 159 21 55 48 107 59 97 150 153 106 62 193 76 80 17 166 17 35 0 90-5 124-6 316-85 125-59 232-144-11-11-48.5-45t-39.5-36q-144 110-260 154-121 44-274 52-69 0-145-13-74-9-162-61-79-47-133-140-37-94-37-181 0-62 13-148 11-81 17-106h258v-111h-242v-1427z" glyph-name="uni09BF" horiz-adv-x="488" unicode="&#x9bf;"/><glyph d="M290-28h-115v1427h-242v111h258q30 173 30 253 0 86-38 182-50 91-133.5 141t-162.5 60q-76 13-143 13-154-8-274-52-113-43-261-155l-88 82q114 88 233 144 114 47 151 56 130 34 255 34 85 0 165-17 92-16 193-76 93-61 150-153 28-52 47-108.5t19-157.5q-1-76-26-246h220v-111h-238v-1427z" glyph-name="uni09C0" horiz-adv-x="482" unicode="&#x9c0;"/><glyph d="M-339-555q-56 0-109 20-45 16-77 40-66 36-92 98-31 44-31 112l1 21q-1 8-1 17 0 111 104 224 43 33 99 55 76 29 148 29 38 0 76-8 116-16 208.5-85t157.5-167q84-140 128-271l-117-25q-30 106-92.5 208t-135.5 159-134 69q-39 8-80 8-25 0-72.5-5t-106.5-53q-28-19-48-61-23-50-23-108 0-71 68-123 55-42 113-42 48 0 79 16 90 33 90 131 0 48-43 92l-14 5 38 106q16-6 27-14 54-32 73-76 33-52 33-119 0-46-19-90-41-97-122-132-70-31-126-31z" glyph-name="uni09C1" unicode="&#x9c1;"/><glyph d="M277-590q-38 121-66 170-46 87-107 149.5t-124 91.5q-47-120-151-185-71-46-156-46-80 0-159 42-111 59-144 171-15 49-15 96 0 75 54 176 58-39 103-59-41-76-41-123 5-61 27-95 26-41 44-53 51-40 127-40 152 0 213 197 5 18 11 67 244-57 373-258 72-111 127-273z" glyph-name="uni09C2" unicode="&#x9c2;"/><glyph d="M-101-682l-467 325 315 370 91-70-238-280q2-1 2.5-2t369.5-259q-69-78-73-84z" glyph-name="uni09C3" unicode="&#x9c3;"/><glyph d="M-126-735q-19 12-143 99-93 63-184 129l-97 68q-25 16-46 31l144 160q-25 17-48 34l-68 47 138 159q15 19 30.5 37t31.5 37q32 39 115 137l91-70-238-280q2-1 3-3t23-15q32-19 104-71 84-58 242-172-69-78-73-84l-257 178-67-77q105-69 368-257-3-4-14-18t-15.5-20-6.5-8.5-6.5-8-9.5-11.5-9.5-12-7.5-9z" glyph-name="uni09C4" unicode="&#x9c4;"/><glyph d="M738 194q1-8 1-17 0-23-3-45-24-137-149-164-46-12-95-12-104 0-183 55-89 53-144.5 140.5t-79 182-28 159.5-4.5 119q0 317 172 564 112 146 216 223h-526v111h1008v-111h-259q-199-94-321-259-173-224-173-532 0-141 22-211 45-201 178-288 55-34 116-36-48 48-48 110 0 63 44 106.5t106 43.5 106-43q40-40 44-96z" glyph-name="uni09C7" horiz-adv-x="759" unicode="&#x9c7;"/><glyph d="M492-44q-104 0-183 55-89 53-144.5 140.5t-79 182-28 159.5-4.5 119q0 317 172 564 112 146 216 223h-526v111h877q-5 79-25 121-39 69-142 85-18 4-43 4-71 0-189-25-111-28-172-28l-19 1q-175 10-255 124-44 69-44 144 0 47 26 125 7-3 16.5-6.5t19-7.5 17.5-7.5 13-4.5q1-1 7-3t12.5-4 12.5-4 8-2q-14-53-14-70 0-167 199-167 44 0 146 22 135 29 214 29 35 0 67-5 154-30 221-144 43-79 43-177h12v-111h-259q-199-94-321-259-173-224-173-532 0-141 22-211 45-201 178-288 55-34 116-36-48 48-48 110 0 63 44 106.5t106 43.5 106.5-44 44.5-112q0-23-3-45-24-137-149-164-46-12-95-12z" glyph-name="uni09C8" horiz-adv-x="760" unicode="&#x9c8;"/><glyph d="M866 859q-68 0-68 64 0 65 65 65 66 0 66-65 0-64-63-64zM1524 1134q-66 0-66 65t66 65q65 0 65-65t-65-65zM1136 1134q-64 0-64 65t64 65q67 0 67-65t-67-65zM863 473q-65 0-65 66 0 65 65 65 66 0 66-65 0-66-66-66zM1330 1171q-65 0-65 69 0 65 65 65t65-65q0-69-65-69zM1796 859q-67 0-67 64 0 65 69 65 66 0 66-65 0-64-68-64zM972 305q-64 0-64 66t64 66q68 0 68-66t-68-66zM1330 157q-65 0-65 68 0 66 65 66t65-66q0-68-65-68zM972 1025q-64 0-64 59 0 73 64 73 68 0 68-69 0-63-68-63zM1136 198q-64 0-64 63 0 70 64 70 67 0 67-66 0-67-67-67zM1690 1025q-69 0-69 63 0 69 69 69 64 0 64-69 0-63-64-63zM1690 305q-66 0-66 66t66 66q67 0 67-66t-67-66zM825 664q-66 0-66 66 0 67 66 67t66-67q0-66-66-66zM1839 664q-66 0-66 66 0 67 66 67t66-67q0-66-66-66zM1796 473q-67 0-67 66 0 65 67 65 68 0 68-65 0-66-68-66zM1524 198q-66 0-66 63 0 70 66 70 67 0 67-70 0-63-67-63zM2199-28h-117v1427h-225v111h603v-111h-261v-1427zM738 194q1-8 1-17 0-23-3-45-24-137-149-164-46-12-95-12-104 0-183 55-89 53-144.5 140.5t-79 182-28 159.5-4.5 119q0 317 172 564 112 146 216 223h-526v111h1008v-111h-259q-199-94-321-259-173-224-173-532 0-141 22-211 45-201 178-288 55-34 116-36-48 48-48 110 0 63 44 106.5t106 43.5 106-43q40-40 44-96z" glyph-name="uni09CB" horiz-adv-x="2401" unicode="&#x9cb;"/><glyph d="M541 284q-11 2-23 2zM738 194q1-8 1-17 0-23-3-45-24-137-149-164-46-12-95-12-104 0-183 55-89 53-144.5 140.5t-79 182-28 159.5-4.5 119q0 317 172 564 112 146 216 223h-526v111h1008v-111h-259q-199-94-321-259-173-224-173-532 0-141 22-211 45-201 178-288 55-34 116-36-48 48-48 110 0 63 44 106.5t106 43.5 106-43q40-40 44-96zM1525 1134q-66 0-66 65t66 65q63 0 63-65t-63-65zM866 859q-67 0-67 64 0 65 64 65 67 0 67-65 0-64-64-64zM1137 1134q-65 0-65 65t65 65q67 0 67-65t-67-65zM863 473q-64 0-64 66 0 65 64 65 67 0 67-65 0-66-67-66zM1796 859q-66 0-66 64 0 65 68 65 66 0 66-65 0-64-68-64zM826 664q-66 0-66 66 0 67 66 67 65 0 65-67 0-66-65-66zM1796 473q-66 0-66 66 0 65 66 65 68 0 68-65 0-66-68-66zM1689 305q-65 0-65 66t65 66q68 0 68-66t-68-66zM1331 1171q-67 0-67 69 0 65 67 65 64 0 64-65 0-69-64-69zM1525 198q-66 0-66 63 0 70 66 70t66-70q0-63-66-63zM1840 664q-67 0-67 66 0 67 67 67 65 0 65-67 0-66-65-66zM972 305q-64 0-64 66t64 66q69 0 69-66t-69-66zM1689 1025q-68 0-68 63 0 69 68 69 65 0 65-69 0-63-65-63zM1137 198q-65 0-65 63 0 70 65 70 67 0 67-66 0-67-67-67zM972 1025q-64 0-64 59 0 73 64 73 69 0 69-69 0-63-69-63zM1331 157q-67 0-67 68 0 66 67 66 64 0 64-66 0-68-64-68zM2228-28h-120v1427h-295v111h283q3 18 3 51 0 108-44 189-81 130-249 130-98 0-255-36-140-33-247-36-104 10-188 52-88 43-133 103-55 89-55 184 0 68 32 160 29-11 39-14.5t15-6.5 57-19q-23-69-23-121 0-32 9-63 38-141 253-155l19-1q62 0 193 29 179 42 292 42 38 0 76-6 178-34 265-185 63-100 63-245 0-45-1-48t-1-4h293v-111h-281v-1427z" glyph-name="uni09CC" horiz-adv-x="2452" unicode="&#x9cc;"/><glyph d="M-87-463l-400 348 72 86 401-344z" glyph-name="uni09CD" unicode="&#x9cd;"/><glyph d="M816 61l-56 18h2q-4 2-9 3t-9 3h2l-39 13q11 57 11 86 0 121-106 239-83 84-160 124-314 211-314 468 0 94 51 172 103 170 273 214 63 14 100 14 56 0 144-30l2-3q157-81 196-208v-2q14-54 14-97 0-84-41-154-76-112-196-112-66 0-120 29-42 31-63 67-25 39-25 83 0 31 13 74 6 16 19 31 53 61 124 61 63 0 108-44.5t45-113.5q4 12 6 21 10 42 10 69 0 115-148 194-41 15-112 15-17 0-23-2-139-21-224-162-38-57-38-120 0-185 267-364 97-54 198-172 115-138 115-288 0-53-17-126z" glyph-name="uni09CE" horiz-adv-x="1077" unicode="&#x9ce;"/><glyph d="M311-28h-115v1427h-238v111h228q2 17 2 34 0 126-44 206-80 130-248 130-97 0-256-36-152-36-248-36-102 10-186 52-90 43-134 103-55 87-55 184 0 64 30 160 60-20 89-33 9-5 23-11-21-68-21-117 0-201 261-218l19-1q62 0 193 29 179 42 292 42 36 0 77-6 176-35 264-185 64-101 64-245l-2-52h247v-111h-242v-1427z" glyph-name="uni09D7" horiz-adv-x="502" unicode="&#x9d7;"/><glyph d="M1002 23q-166 0-363 119-321 172-555 781 4 3 100 54 116-318 254-493 141-179 256-241 175-105 307-105 127 0 215 97 46 51 69 119 32 103 49 215.5t17 272.5q-268-106-413-126-43-10-85-10-95 0-142 64-29 41-29 100 0 97 83.5 233t266.5 296h-1142v111h1857v-111h-526q-16-11-31.5-23.5t-31.5-23.5q-189-138-297-310-66-118-66-168 0-53 57-53 39 0 74 9 196 29 475 158 50 27 52 27l7-85q8-74 8-146 0-606-316-734-81-27-150-27zM936-367q-56 0-90 34t-34 91q0 56 34 90.5t90 34.5q55 0 89-34t34-91-34-91-89-34z" glyph-name="uni09DC" horiz-adv-x="1637" unicode="&#x9dc;"/><glyph d="M440 73q-130 0-215 25h2q-22 7-43 16v1285h-269v111h1593v-111h-1209v-1201q89-13 148-13 179 0 393 87 100 44 179 118.5t121 176.5q22 52 22 112 0 22-4 42-16 112-98 180-89 75-193 75-17 0-26-1-3-1-7-1-121-16-207-113-43-56-43-112 5-92 67-136-9 25-9 54 0 63 44 106.5t106 43.5q65 0 117-55 34-44 34-101 0-7-2-21-23-125-129-159-38-12-73-12-39 0-76 12-156 60-185 208-8 26-8 63 0 97 69 180 102 133 283 157 11 1 39 1 146 0 271-104 112-97 136-226 8-61 8-80 0-79-31-156-52-122-143-214.5t-219-142.5q-224-94-443-94zM522-350q-57 0-91 34t-34 91q0 56 34 90.5t91 34.5q55 0 89-34t34-91-34-91-89-34z" glyph-name="uni09DD" horiz-adv-x="1427" unicode="&#x9dd;"/><glyph d="M1053 116v1283h-735q207-176 302-391l-382-474q111-100 259-190 195-118 556-228zM1172-28h-119v15q-668 192-974 535l405 503q-80 135-189 232-116 101-243 142h-144v111h1547v-111h-283v-1427zM410-210q-57 0-91 34t-34 91q0 56 34 90.5t91 34.5q55 0 89-34t34-91-34-91-89-34z" glyph-name="uni09DF" horiz-adv-x="1386" unicode="&#x9df;"/><glyph d="M1203-596l-462 323q8 8 18 20 5 6 9.5 11t6 8 7 8 199.5 233q-260 76-542 250-230 143-353 275l716 581q-32 133-152 253-45-327-322-327-71 0-131 39-48 31-77 80-23 40-23 83 0 83 49 133 45 45 109 45t109-45 45-108q0-64-45-109 56 9 97 46 73 61 73 185 0 60-13 112l86 38 61-40q164-113 234-306l141 113v269h119v-845q148-24 306-106v951h116v-64h295v-111h-295v-1427h-116v511q-134 87-306 126v-637h-73q-25-30-48-58t-46-55-46.5-54.5-49.5-58.5q31-22 67-46 249-175 303-214zM1048 113v1039q-390-312-584-466l-198-158q115-95 239-173 282-171 543-242z" glyph-name="uni09E0" horiz-adv-x="1800" unicode="&#x9e0;"/><glyph d="M680-550q-11 34-15 42-9 23-10 33h-2l-1 19q14 11 14 14 33 96 33 175 0 73-24 125-22 68-76 103-46 29-91 29-64 0-118-59 60 0 104-44t44-106-44-106-106-44q-63 0-107 44-29 30-39 68l-2 11q-7 14-7 55 0 90 69 178 89 106 208 106 72 0 155-50 26-15 49-43 90-112 90-268 0-38-14-116 170 114 214 229 21 50 21 122 0 115-77 273-18 25-31 48-141-106-322-106l-82 3q8 32 14 52.5t9 33.5l-3 1q24 96 24 149 0 63-18 115-37 123-111 165-41 26-81 26-63 0-113-61v2l-5-7q69 0 113-43.5t44-106.5q0-62-44-106t-106-44-106 44q-28 28-39 63-10 44-10 79 0 88 56 179l9 9-2-1q87 104 209 104 64 0 123-34 110-70 161-198 32-96 32-171 0-39-18-136 201 32 282 186 36 56 36 130 0 47-10 79-57 166-286 275-74 35-136 86-131 106-178 247-23 67-23 136 0 40 11 100l66-23q14-6 38-14l-6-37q0-3 .5-3.5t.5-16.5q0-141 110-257 68-70 163-117 364-185 364-458 0-112-92-248 21-28 45-70 93-172 93-327 0-84-31-171-42-103-149-192.5t-269-153.5z" glyph-name="uni09E1" horiz-adv-x="1265" unicode="&#x9e1;"/><glyph d="M129-736q-6 0-17 .5t-23.5 1-24 1.5-16.5 1q25 79 27 110 15 60 15 123 0 70-18 122-33 116-110 160-43 25-81 25-64 0-114-60l-5-8q70 0 114-43.5t44-106.5q0-62-44-106t-106-44-106 44q-49 51-49 143 0 83 40 152 66 113 186 134 25 5 45 5 62 0 126-34 109-70 157-197 32-83 32-172 0-40-18-137 205 35 288 190 34 65 34 127 0 117-113 227-75 73-185 128-151 73-248 200-88 126-88 268 0 32 9 97 8-2 22.5-6.5t30-10 29-10 20.5-7.5q-3-27-3-57 0-140 110-258 72-74 164-116 290-144 346-348 16-46 16-111 0-93-53-184-123-243-433-243z" glyph-name="uni09E2" horiz-adv-x="442" unicode="&#x9e2;"/><glyph d="M128-731q-25 0-80 8 41 126 41 230 0 71-18 123-31 110-110 160-44 25-81 25-59 0-117-62l-2-4q71 0 115-43.5t44-106.5q0-62-44-106t-106-44-106 44q-27 28-37 62h-2q-11 53-11 79 0 82 62 182 91 108 209 108 62 0 131-40 106-66 151-191 33-81 33-172 0-50-17-137 202 37 283 185v2q38 66 38 130 0 116-110 229-72 72-188 127-143 63-248 199-88 128-88 269 0 40 8 98 4-2 12.5-4.5t17-5.5 17-5 55.5-19q-2-20-2-59 0-140 109-258 71-72 163-116 6-4 16-8 8 111 57 184l6 5q93 103 205 103 61 0 125-34 112-74 158-197 33-89 33-172 0-52-18-136 199 33 284 181v5q37 67 37 131 0 115-111 228-71 72-186 127-147 67-248 199-89 127-89 268 0 43 8 101 17-7 33-12.5t15-5.5q1 0 5-1t10.5-3.5 11.5-4 11-3.5 10.5-4 6.5-2q-3-39-3-58 0-143 110-259 76-76 163-115 364-181 364-458 0-95-54-185-123-243-432-243-35 0-82 4 25 82 27 108 17 68 17 126 0 66-21 125-32 111-110 155-40 26-80 26-45 0-83-30 44-9 78-42 44-43 44-106 0-62-44-106-25-25-55-36 146-140 146-313 0-97-57-190l1 3q-122-242-431-242z" glyph-name="uni09E3" horiz-adv-x="1192" unicode="&#x9e3;"/><glyph d="M638 226q184 0 308 130 130 138 130 339 0 194-130 333-125 134-308 134-182 0-305-135-128-137-128-332 0-205 128-339 126-130 305-130zM636 111q-226 0-385.5 164.5t-159.5 418.5q0 245 160 413 154 167 385 167 230 0 388-168 162-174 162-412 0-251-162-420-157-163-388-163z" glyph-name="uni09E6" horiz-adv-x="1298" unicode="&#x9e6;"/><glyph d="M461 42q-98 0-168 26-212 104-212 293 0 67 33 131 72 115 188 115 29 0 57-11 34-11 61-38 46-45 46-110 0-64-45.5-109.5t-109.5-45.5q-65 0-113 48l2-11q11-94 139-158l-4 1q57-19 123-19 30 0 48 3 169 22 256 173 43 84 43 167 0 31-7 66-26 128-135 244-81 86-202 156-155 84-224 164-75 87-75 194 0 49 22 119l110-31q-18-65-18-85 0-63 45.5-119t174.5-130q18-11 25-14 291-169 372-401 28-82 28-159 0-113-58-227-136-232-402-232z" glyph-name="uni09E7" horiz-adv-x="1025" unicode="&#x9e7;"/><glyph d="M1154-34q-498 340-1034 486-11 1-55 13 2 8 35 110l57-15q101-15 200-15 166 0 304 56 100 54 156 110 61 61 61 132 0 98-98 175-92 78-318 137-158 42-215 91l1-2q-71 57-78 196l118-23q5-65 33-89 32-25 169-62 244-66 361-156 141-122 141-264l-2-32q-17-171-245-301-99-47-234-70 385-163 709-385-33-43-36-46t-30-46z" glyph-name="uni09E8" horiz-adv-x="1241" unicode="&#x9e8;"/><glyph d="M834 85q-85 0-176 26-153 36-313 196-131 140-202.5 335t-71.5 436q0 68 4 120l112-5-2-112q0-217 60-391t171-296q193-193 419-193 139 0 261 87 94 71 134 147 76 125 76 274 0 145-66 260-79 118-194 168-52 23-104 23-24 2-37 2-67 0-119-27-43-25-97-83-38-58-38-127 0-40 14-73 8 50 45 88 48 48 116 48 67 0 115-48t48-115q0-68-48-116-42-41-98-47-34-7-54-7-47 0-98 20-92 38-124 118-31 59-31 129 0 99 61 198l3 4q65 77 133 113 82 41 198 41 84 0 164-37 144-63 242-210 83-147 83-320 0-185-91-336-35-67-122-145-165-145-373-145z" glyph-name="uni09E9" horiz-adv-x="1545" unicode="&#x9e9;"/><glyph d="M568 168q131 0 232 75 108 84 108 209t-108 211q-105 76-232 76-126 0-231-76-108-86-108-211 0-124 109-209 99-75 230-75zM568 854q104 0 191 60 86 65 86 165 0 98-87 166-83 64-190 64-106 0-186-65-41-31-64-74t-23-91q0-101 88-166 82-59 185-59zM568 53q-185 0-318.5 116.5t-133.5 282.5q0 212 233 350-170 122-170 277 0 144 123 250 112 91 266 91 159 0 268-91 60-52 91.5-112t31.5-138q0-156-169-277 232-139 232-350 0-171-133-283-133-116-321-116z" glyph-name="uni09EA" horiz-adv-x="1157" unicode="&#x9ea;"/><glyph d="M625 180q114 4 274 72-202 124-202 305 0 78 35 161t114 184q-84 9-152 36-155 61-237 236-163-207-222-388-30-103-30-180 0-146 84-261 119-165 324-165h12zM603 76q-259 0-404 205-106 150-106 324 0 161 88 343 58 122 147 240 84 110 221 253l73-78-44-48q-11-12-18-18-10-9-23-26 30-105 91-160 104-104 268-104 33 0 45 1 35 36 58.5 58t30 27.5 9.5 8.5l79-79q-90-74-167-167-144-175-144-301 0-156 231-252 54-19 109-31l-98-63q-209-133-446-133z" glyph-name="uni09EB" horiz-adv-x="1193" unicode="&#x9eb;"/><glyph d="M830 59q-56 0-73 4h-5q-129 20-261 101-130 88-196 192-165 220-243 762l117 2q75-505 220-701 53-82 150-148 146-97 291-97 138 0 248 92 139 123 139 326 0 61-14 129-14-10-27-20t-28-20q-92-53-180-53-38 0-76 10-93 24-157 101-51 59-70 147-6 26-6 56 0 31 7 69 27 137 123 292l115-33q-130-209-130-334 0-30 14-64 24-68 87-102 48-27 94-29 51 0 121 39 84 62 115 97l48 53 34-84q45-111 45-255 0-258-181-412-138-120-321-120z" glyph-name="uni09EC" horiz-adv-x="1430" unicode="&#x9ec;"/><glyph d="M420 711q199 2 389 47v354q-41 185-220 185-34 0-80-8h-4q-197-48-288-271v2q-21-63-21-123 0-186 224-186zM922 48h-113v594q-208-45-398-45-186 0-271 114-59 79-59 186 0 68 29 159 112 285 373 344 50 10 107 10 219 0 307-198 19-43 25-85v-1079z" glyph-name="uni09ED" horiz-adv-x="1034" unicode="&#x9ed;"/><glyph d="M453 162q51 0 87 9l-7-1q200 47 291 269 22 75 22 123 0 186-221 186-196 0-392-47v-354q17-100 88-151 50-34 132-34zM452 48q-118 0-196 56-36 26-64.5 62t-48 82-25.5 83v1079h115v-594q199 46 396 46 60 0 108-12l1 1q54-18 63-22 102-32 219-35 124 3 236 115l106-61q-51-51-59-57-73-60-148-89-86-22-155-22-30 0-64 5 23-56 23-123 0-74-28-159-57-143-148-228.5t-233-116.5l6 1q-53-11-104-11z" glyph-name="uni09EE" horiz-adv-x="1408" unicode="&#x9ee;"/><glyph d="M491 46l-85 3 11 108h36q57 95 57 177 0 104-79 161-43 30-93 30-45 0-85-30 53-5 92-43 44-44 44-107 0-62-44-106t-107-44q-62 0-106 44-33 32-41 74-12 36-12 70 0 77 57 155 88 97 207 97 82 0 155-52 126-90 126-254 0-84-39-168 214 30 299 166 47 88 47 172 0 237-395 461l-52 27q-131 62-199 128-74 78-74 177 0 50 22 118l111-33q-19-57-19-84 0-57 46-104t177-111q21-12 30-16t16-8q454-253 454-551 0-111-65-230-74-124-235-183-121-44-257-44z" glyph-name="uni09EF" horiz-adv-x="1153" unicode="&#x9ef;"/><glyph d="M1169-28h-120v15q-292 65-608 261-232 140-353 280l586 871h-745v111h1494v-111h-254v-1427zM1049 108v444q-209 91-448 235-3 1-4 2t-5 1.5-43 30.5q-34 26-62 41-9 5-20 13l-224-334q104-93 260-191 276-170 546-242zM1049 693v706h-230l-285-425 66-44q96-66 251-145 108-56 198-92z" glyph-name="uni09F0" horiz-adv-x="1351" unicode="&#x9f0;"/><glyph d="M867-237q-298 102-529 244-85 51-239 163l76 94q142-108 226-156 227-137 534-245-8-8-68-100zM1048 107v1292h-229q-572-848-576-856 103-95 258-193 274-170 547-243zM1164-28h-116v15q-286 66-607 262-222 132-352 279l585 871h-755v111h1542v-111h-297v-1427z" glyph-name="uni09F1" horiz-adv-x="1349" unicode="&#x9f1;"/><glyph d="M1110 498l-100 106q56 118 56 297 0 183-190 377-161 145-417 206-113 26-218 26-50 0-120-6-7 33-9 53.5t-13 52.5q93 6 142 6 253 0 479-107 151-74 232-154 219-206 221-449 0-222-63-408z" glyph-name="uni09F2" horiz-adv-x="1141" unicode="&#x9f2;"/><glyph d="M555 91q-94 0-130 11t-63 22v771h-223v117h226q0 151-57 223-55 68-202 101l11 117q357-90 357-415v-26h218v-117h-218v-687q24-3 43-3 172 0 311 55 140 62 201 201 14 28 14 79-8 77-71 128-57 50-130 50-92 0-142-74-15-13-20-43 40 40 97 40 58 0 98.5-41.5t40.5-112.5q0-7-1-12-33-111-146-111-82 0-153 75-41 42-48 96-6 19-6 41 0 68 48 142 98 114 242 114 49 0 103-22t92-54q88-77 102-169 3-11 3-52 0-65-25-120-85-184-258-256-164-68-314-68z" glyph-name="uni09F3" horiz-adv-x="1298" unicode="&#x9f3;"/><glyph d="M351 521q-66 0-138 8 3 24 7 39 5 33 11 65 84-6 120-6 227 0 429 98 136 64 207 133 189 196 189 378 0 178-54 300l100 101q30-93 46-186t16-219q-2-242-222-448-80-82-231-155-235-108-480-108z" glyph-name="uni09F4" horiz-adv-x="1335" unicode="&#x9f4;"/><glyph d="M629 278q-129 0-317 64l33 100h26q165 103 212 237 18 50 18 85 0 36-20 76-9-46-44-81-48-47-115-47-68 0-115.5 47.5t-47.5 115.5q0 67 47 115 51 51 127 51 62 0 124-28 87-42 138-147 15-54 15-101 0-183-197-364 72-10 114-10 318 0 478 396 163 331 275 772 9 6 82 79-38-276-108-503-61-189-133-354-60-160-145-270-180-233-447-233z" glyph-name="uni09F5" horiz-adv-x="1341" unicode="&#x9f5;"/><glyph d="M629 321q-127 0-331 65l36 101h27q239 148 239 338 0 15-6 57v-4q-50 119-165 119-21 0-41-2-138-31-153-134 43 42 103 42t103-43 43-103q0-16-3-30l-2-11q-10-35-38-63-43-42-103-42h-9q-139 0-197 138-15 62-15 91 0 67 37 127 56 100 212 137 21 7 60 7 69 0 127-29 99-54 147-173 12-44 12-83 0-41-13-88-29-141-196-291 82-12 125-12 62 0 115 13 244 58 388 410 27 54 61.5 140t76.5 191q87 229 142 464 14 8 17 9.5t68 66.5q-49-318-114-517-83-258-140-375-67-161-152-273-93-123-196-180-118-63-265-63z" glyph-name="uni09F6" horiz-adv-x="1542" unicode="&#x9f6;"/><glyph d="M302 108q-60 0-87.5 42t-27.5 130q0 25 1 32v919q-6 80-105 88 21 59 47.5 85t61.5 30q58-3 84-46t26-131q0-6-.5-13t-.5-932q6-82 104-90-36-109-103-114z" glyph-name="uni09F7" horiz-adv-x="511" unicode="&#x9f7;"/><glyph d="M851 168q-60 0-87 42.5t-27 130.5q0 24 1 32 0 592-1 633 0 17 1 27l-355-458q-25-37-78-43-60 1-86 43.5t-26 128.5q0 24 1 32v474q-6 81-105 89 21 59 47 85t61 31q58-3 84.5-46.5t26.5-131.5l-1-27q0-518 4-536l341 441q28 49 85 55 112-4 112-186v-611q6-82 104-89-33-110-102-116z" glyph-name="uni09F8" horiz-adv-x="1072" unicode="&#x9f8;"/><glyph d="M541 318q78 0 150.5 32t126.5 85q118 130 118 307 0 176-118 301-112 121-277 121t-276-122q-115-119-115-300 0-186 115-307 113-117 276-117zM539 208q-206 0-353 149-145 153-145 385 0 220 145 376 142 153 353 153t355-153q147-157 147-376 0-229-147-385-144-149-355-149z" glyph-name="uni09F9" horiz-adv-x="1109" unicode="&#x9f9;"/><glyph d="M646 1286q-131 0-227 91-78 81-93 221h108q11-88 63-140 61-64 149-64 84 0 174 75 95 85 341 379h74q-267-367-366-470-94-92-223-92zM649 1516q-39 0-68 29t-29 68q0 36 29 67 26 26 68 26 35 0 67-28 27-29 27-65 0-40-28-68.5t-66-28.5z" glyph-name="uni09FA" horiz-adv-x="1090" unicode="&#x9fa;"/><glyph d="M1402 30h-112v568h-451v-562h-680v112h569v450h-562v681h111v-569h451v563h680v-112h-569v-451h563v-680z" glyph-name="uni0FD5" horiz-adv-x="1643" unicode="&#xfd5;"/><glyph d="M66 28h-120v1431h120v-1431z" glyph-name="uni200C" unicode="&#x200c;"/><glyph d="M62-53h-120v1449l-80-87q-37-40-57-60l-76 74 201 216q-144 156-165 177-29 29-35 36 18 18 25.5 25t13.5 13 9 8 30 29l195-211q149 166 194 211l41-41q2-5 39-31l-203-216q35-41 203-217-32-28-43-39-5-7-36-32l-136 144v-1448z" glyph-name="uni200D" unicode="&#x200d;"/><glyph d="M950 844h-812v119h812v-119z" glyph-name="endash" horiz-adv-x="1119" unicode="&#x2013;"/><glyph d="M1080 872h-930v119h930v-119z" glyph-name="emdash" horiz-adv-x="1232" unicode="&#x2014;"/><glyph d="M302 1275h-9q-64 0-103 26-61 43-82 126-3 22-3 44 0 77 54 133 97 83 201 83 23 0 69-12l-29-97h-38q-66 0-118-43-26-28-31-54l2 3q36 36 87 36t87-36 36-87q0-50-36-86t-87-36z" glyph-name="quoteleft" horiz-adv-x="715" unicode="&#x2018;"/><glyph d="M389 1275q-23 0-69 12l29 97h38q66 0 118 43 26 27 31 54-39-39-89-39-51 0-87 36t-36 87q0 50 36 86t96 36q64 0 103-26 61-43 83-125 2-23 2-45 0-77-54-133-97-83-201-83z" glyph-name="quoteright" horiz-adv-x="764" unicode="&#x2019;"/><glyph d="M146-226h-105l127 453h135z" glyph-name="quotesinglbase" horiz-adv-x="495" unicode="&#x201a;"/><glyph d="M744 1275h-9q-64 0-103 26-61 43-82 126-3 22-3 44 0 77 54 133 97 83 201 83 23 0 69-12l-29-97h-38q-66 0-118-43-26-28-31-54l2 3q36 36 87 36t87-36 36-87q0-50-36-86t-87-36zM302 1275h-9q-64 0-103 26-61 43-82 126-3 22-3 44 0 77 54 133 97 83 201 83 23 0 69-12l-29-97h-38q-66 0-118-43-26-28-31-54l2 3q36 36 87 36t87-36 36-87q0-50-36-86t-87-36z" glyph-name="quotedblleft" horiz-adv-x="1114" unicode="&#x201c;"/><glyph d="M355 1275q-23 0-69 12l29 97h38q66 0 118 43 26 27 31 53l-3-2q-35-36-86-36t-87 36-36 86q0 51 36 87t96 36q64 0 103-26 61-43 83-125 2-23 2-45 0-77-54-133-97-83-201-83zM797 1275q-23 0-69 12l29 97h38q66 0 118 43 25 27 30 52-37-37-88-37t-86.5 36-35.5 87q0 50 35.5 86t95.5 36q64 0 103-26 61-43 83-125 2-23 2-45 0-77-54-133-97-83-201-83z" glyph-name="quotedblright" horiz-adv-x="1193" unicode="&#x201d;"/><glyph d="M384-230h-105l125 457h137zM149-230h-105l128 457h135z" glyph-name="quotedblbase" horiz-adv-x="715" unicode="&#x201e;"/><glyph d="M398 203h-66l-29 690-276-27v141l293-19q-9 113-27 386h145l-28-386q66 4 139 9.5t136 9.5v-142l-257 28q-8-169-15-346t-15-344z" glyph-name="dagger" horiz-adv-x="774" unicode="&#x2020;"/><glyph d="M439 203h-147l27 299-292-27v140l278-19q8 51 16.5 96t16.5 96q-5 27-9 50.5t-7.5 46-8 46-8.5 50.5q-184-14-278-20v141l293-27q-19 195-28 299h147l-27-299q174 16 273 27v-141l-259 19q-18-96-33-192 4-27 8-50t8-45.5 8-46 9-50.5q62 4 131 10t128 9v-140l-274 27q12-142 28-299z" glyph-name="daggerdbl" horiz-adv-x="760" unicode="&#x2021;"/><glyph d="M385 437q-101 0-175 71-73 73-73 169 0 98 72.5 171.5t175.5 73.5q100 0 171.5-72.5t71.5-172.5-72-170-171-70z" glyph-name="bullet" horiz-adv-x="850" unicode="&#x2022;"/><glyph d="M1083-29q-40 0-66 27t-26 68q0 40 26 65.5t66 25.5 67.5-25.5 27.5-65.5q0-41-27.5-68t-67.5-27zM648-29q-40 0-66.5 27t-26.5 68q0 40 26.5 65.5t66.5 25.5 67-25.5 27-65.5q0-41-27-68t-67-27zM216-29q-40 0-66.5 27t-26.5 68q0 40 26.5 65.5t66.5 25.5 67-25.5 27-65.5q0-41-27-68t-67-27z" glyph-name="ellipsis" horiz-adv-x="1370" unicode="&#x2026;"/><glyph d="M413 675q-155 0-244 101-86 98-86 259 0 173 93.5 269.5t246.5 96.5q147 0 236-98t89-266q0-155-90-257-93-105-245-105zM415 785q101 0 155 67 58 70 58 187 0 122-55 186.5t-152 64.5q-100 0-159-66.5t-59-190.5q0-116 56-182t156-66zM424-45h-133l836 1418h130zM1931-37q-154 0-243 101-86 98-86 259 0 173 95.5 270t244.5 97q148 0 236-99t88-266q0-155-90-257-93-105-245-105zM1933 72q98 0 156 66 58 78 58 188 0 126-56 189.5t-151 63.5q-98 0-158-67t-60-191q0-114 57-184 56-65 154-65zM1154-37q-155 0-243 99.5t-88 260.5q0 174 96 270.5t244 96.5 236.5-99.5 88.5-265.5q0-157-90-257-92-105-244-105zM1156 72q98 0 156 66 57 77 57 188 0 125-55.5 189t-152.5 64q-100 0-157-67-60-72-60-191 0-115 57-184 56-65 155-65z" glyph-name="perthousand" horiz-adv-x="2415" unicode="&#x2030;"/><glyph d="M514 176h-149l-277 335 277 342h151l-282-342q31-38 67.5-81.5t74-87.5 73-87 65.5-79z" glyph-name="guilsinglleft" horiz-adv-x="648" unicode="&#x2039;"/><glyph d="M217 176h-153l283 342-281 335h151l274-335z" glyph-name="guilsinglright" horiz-adv-x="648" unicode="&#x203a;"/><glyph d="M915-14h-854v110q234 97 234 333v59h-215v119h215v139h-215v119h215v123q0 185 98 297.5t261 112.5q93 0 189-39v-129q-112 54-192 54-112 0-173.5-79t-61.5-229v-111h310v-119h-310v-139h310v-119h-310v-27q0-234-166-361h665v-114z" glyph-name="lira" horiz-adv-x="1114" unicode="&#x20a4;"/><glyph d="M995-14h-143l-185 407q-53 118-105.5 157.5t-130.5 39.5h-151v-604h-128v1389h393q187 0 294.5-101t107.5-268q0-144-75.5-242t-221.5-137q69-50 132-184zM496 709q147 0 233.5 76.5t86.5 210.5q0 121-77 190t-223 69h-236v-546h216zM1313-37q-146 0-250 73v152q133-112 257-112 211 0 211 169 0 55-45 97t-158 90q-143 63-202 130.5t-59 168.5q0 126 95 203t234 77q130 0 231-58v-140q-128 85-240 85-89 0-142.5-45.5t-53.5-116.5q0-59 33-100 37-43 156-95 154-69 212-129 63-63 63-167 0-124-92-204-88-78-250-78z" glyph-name="uni20A8" horiz-adv-x="1888" unicode="&#x20a8;"/><glyph d="M653-37q-177 0-300 133-60 65-98 152t-57 211h-139v113h128q-2 20-2 106 0 48 4 84h-130v113h143q46 245 170 379 132 144 319 144 124 0 238-56v-138q-134 80-245 80-130 0-227-106-91-99-129-303h508v-113h-524q-2-20-2-99 0-34 .5-43.5t1-20.5 1.5-27h523v-113h-508q35-192 124-289 86-94 212-94 113 0 265 103v-136q-130-80-276-80z" glyph-name="Euro" horiz-adv-x="1093" unicode="&#x20ac;"/><glyph d="M1037 145q-521 245-965 399l17 60q1 9 16 54 113-20 211-20 177 0 317 63 119 50 178 119 89 105 89 226l-1 28h-671v120h643q-10 25-23 46-110 141-271 159-205 0-240-1l1 1h-384v111h1532v-111h-623q45-36 79-80 42-67 57-125h298v-120h-278v-17q0-173-133-335-131-149-433-196 227-88 390-161 189-84 246-113-1-2-2.5-6.5t-4-10-4.5-10-8-15.5q-9-19-15-30.5t-11-21.5-7-13z" glyph-name="indianrupee" horiz-adv-x="1485" unicode="&#x20b9;"/><glyph d="M1325 716h-111v443q-106-245-190-443h-87l-180 441v-441h-112v659h137l201-492q104 240 212 492h130v-659zM378 716h-112v551h-209v108h531v-108h-210v-551z" glyph-name="trademark" horiz-adv-x="1593" unicode="&#x2122;"/><glyph d="M671 540h-551v119h551v-119z" glyph-name="minus" horiz-adv-x="846" unicode="&#x2212;"/><glyph d="M1047 212l-821 415v39l821 460v-129l-624-348 624-307v-130zM1082 46h-891v113h891v-113z" glyph-name="lessequal" horiz-adv-x="1336" unicode="&#x2264;"/><glyph d="M226 212v130l623 307-623 348v129l821-460v-39zM1082 46h-891v113h891v-113z" glyph-name="greaterequal" horiz-adv-x="1314" unicode="&#x2265;"/><glyph d="M650 1187q-66 0-66 69 0 65 66 65 64 0 64-65 0-69-64-69zM844 1150q-66 0-66 65t66 65q63 0 63-65t-63-65zM456 1150q-65 0-65 65t65 65q67 0 67-65t-67-65zM1009 1041q-68 0-68 63 0 69 68 69 65 0 65-69 0-63-65-63zM292 1041q-65 0-65 60 0 72 65 72 68 0 68-69 0-63-68-63zM1115 875q-66 0-66 64 0 65 68 65 66 0 66-65 0-64-68-64zM186 875q-68 0-68 64 0 65 65 65 66 0 66-65 0-64-63-64zM1159 680q-67 0-67 66 0 67 67 67 65 0 65-67 0-66-65-66zM145 680q-66 0-66 66 0 67 66 67t66-67q0-66-66-66zM1115 489q-66 0-66 66 0 65 66 65 68 0 68-65 0-66-68-66zM183 489q-65 0-65 66 0 65 65 65 66 0 66-65 0-66-66-66zM1009 321q-66 0-66 66t66 66q68 0 68-66t-68-66zM292 321q-65 0-65 66t65 66q68 0 68-66t-68-66zM844 214q-66 0-66 63 0 70 66 70 67 0 67-70 0-63-67-63zM456 214q-65 0-65 63 0 70 65 70 67 0 67-65 0-68-67-68zM650 173q-66 0-66 68 0 66 66 66 64 0 64-66 0-68-64-68z" glyph-name="uni25CC" horiz-adv-x="1295" unicode="&#x25cc;"/><glyph d="M489 229l-367 348 82 79 285-274 572 546 82-78z" glyph-name="uni2713" horiz-adv-x="1229" unicode="&#x2713;"/><glyph d="M974 171l-315 318-316-318-80 80 316 315-316 318 80 79 316-316q37 38 158 158l157 158 80-79-316-318 316-315z" glyph-name="uni274C" horiz-adv-x="1277" unicode="&#x274c;"/><glyph d="M492-44q-104 0-183 55-89 53-144.5 140.5t-79 182-28 159.5-4.5 119q0 317 172 564 112 146 216 223l155 111h327v-111h-259q-199-94-321-259-173-224-173-532 0-141 22-211 45-201 178-288 55-34 116-36-48 48-48 110 0 63 44 106.5t106 43.5 106.5-44.5 44.5-111.5q0-23-3-45-24-137-149-164-46-12-95-12z" glyph-name="Charu_Chandan" horiz-adv-x="744"/><glyph d="M492-44q-104 0-183 55-89 53-144.5 140.5t-79 182-28 159.5-4.5 119q0 317 172 564 112 146 216 223l155 111h196q-5 79-25 121-39 69-142 85-18 4-43 4-71 0-189-25-111-28-172-28l-19 1q-175 10-255 124-44 69-44 144 0 47 26 125 7-3 16.5-6.5t19-7.5 17.5-7.5 13-4.5q1-1 7-3t12.5-4 12.5-4 8-2q-14-53-14-70 0-167 199-167 44 0 146 22 135 29 214 29 35 0 67-5 154-30 221-144 43-79 43-177h12v-111h-259q-199-94-321-259-173-224-173-532 0-141 22-211 45-201 178-288 55-34 116-36-48 48-48 110 0 63 44 106.5t106 43.5 106.5-44.5 44.5-111.5q0-23-3-45-24-137-149-164-46-12-95-12z" glyph-name="Charu_Chandan.1" horiz-adv-x="752"/><glyph d="M-381 1610l-82 82 379 383 80-80z" glyph-name="Charu_Chandan.2"/><glyph d="M1149-28h-115v15q-288 67-608 263-230 138-351 279l586 870h-757v111h2085v-111h-625q323-141 397-354 30-76 30-176 0-102-40-171-62-119-195-143-31-6-60-6-100 0-188 65-79 80-79 189 0 18 6 55t35.5 79 81.5 64q33 14 70 14 89 0 138-49 40-40 44-96l1-15h-1q-2-59-45-102t-105-43q-54 0-94 33 30-80 126-80 61 0 109 32 80 54 80 170 0 83-23 139-52 145-263 258-107 54-240 89v-1379zM1034 105v1294h-232l-577-857q111-101 261-193 274-170 548-244z" glyph-name="Charu_Chandan.3" horiz-adv-x="1918"/><glyph d="M-520 248q65-44 85-143 6-30 6-55 0-94-79-161-85-77-224-77-49 0-83 10-112 39-181 135-20 25-32 52-42 87-42 184 0 103 43 169 80 155 271 207 60 16 124 16 101 0 221-56 94-44 165-111v538h117v-1127h-117v408q-61 82-168 164-107 68-218 68-49 0-98-12-25-6-75-32-86-53-122-116-28-56-28-117 0-49 15-103 26-109 161-156 13-5 42-5 9 0 24 2 88 8 124 39 11 9 19 17-21-6-44-6-62 0-106 44t-44 106q0 63 44 106.5t106 43.5q54 0 94-32z" glyph-name="Charu_Chandan.4"/><glyph d="M-473-61q-126 0-242 73-108 60-180 168.5t-116 274.5q96 20 109 22 80-279 251-372 81-50 175-50 168 0 256 100 45 49 58 106 8 46 8 94 0 20-2 38.5t-3 34.5q-19 80-64 123-83 79-176 79-43 0-81-17 59-4 102-47 48-48 48-115 0-68-48-115.5t-115-47.5-114 46q-24 14-48 55t-24 99q0 23 6 46 21 91 95 150 49 40 113 51 26 8 62 8 138 0 260-110 65-62 88-170 14-55 14-109 0-179-116-298-145-117-316-117z" glyph-name="Charu_Chandan.5"/><glyph d="M1131-28h-117v14q-284 65-606 262-221 129-353 278l470 501q19 63 19 105 0 69-37 141-49 104-173 104-62 0-107-36l16 1q62 0 106-43.5t44-106.5q0-60-42-104-47-47-121-47-62 0-112 56-29 30-43 73t-14 81q15 120 87 181 78 63 185 63 27 0 47-2 162-27 235-167 48-100 48-192 0-76-33-163-5-10-7-12t-17-22l-386-410q221-187 521-319 156-70 273-101v1467h115v-64h257v-111h-255v-1427z" glyph-name="Charu_Chandan.6" horiz-adv-x="1317"/><glyph d="M1131-28h-117v14q-284 65-606 262-221 129-353 278l470 501q19 63 19 105 0 69-37 141-49 104-173 104-62 0-107-36l16 1q62 0 106-43.5t44-106.5q0-60-42-104-47-47-121-47-62 0-112 56-29 30-43 73t-14 81q15 120 87 181 78 63 185 63 27 0 47-2 162-27 235-167 48-100 48-192 0-76-33-163-5-10-7-12t-17-22l-386-410q221-187 521-319 156-70 273-101v1467h115v-64h257v-111h-255v-1427z" glyph-name="Charu_Chandan.7" horiz-adv-x="1318"/><glyph d="M1128-28h-115v14q-284 65-609 262-228 142-350 278l389 586q-156 9-279 117-100 97-100 218 0 48 8 72 11 58 44 106 80 117 216 117 28 0 80-10 97-34 124-114 15-42 15-76 0-66-44-110t-106-44-106 44-44 106q0 41 18 73-26-10-55-54-33-48-33-108 0-72 64-133 87-89 205-89 36 0 76 10 90 132 184 273h703v-111h-285v-1427zM1013 101v1298h-239q-240-358-427-641-71-108-144-217 233-198 538-337 155-71 272-103z" glyph-name="Charu_Chandan.8" horiz-adv-x="1349"/><glyph d="M627-188q-48 0-82 10-115 40-182 135-34 42-53 103-21 77-21 133 0 94 44 170 84 152 269 206 62 16 125 16 199 0 386-171v182l117 1v-768h-117v406q-71 93-169 166-106 68-217 68-50 0-99-12-16-5-65-29-1 0-2.5-1t-3.5-1q-89-56-125-117-29-51-29-117 0-54 17-103 26-109 160-156 13-5 41-5 11 0 26 2 109 10 148 64-29-14-64-14-63 0-106.5 44t-43.5 106 43.5 106 113.5 44q49 0 92-27 73-43 94-148 6-30 6-55 0-97-78-161-86-77-225-77z" glyph-name="Charu_Chandan.9" horiz-adv-x="1062"/><glyph d="M-290-86v596l-419-374q67-52 132-95 119-77 287-127zM-172-232q-196 30-465 176-92 55-242 195 78 66 248 217 74 65 183 165 35 28 57 48.5t50.5 44.5 51.5 45h117v-891z" glyph-name="Charu_Chandan.10"/><glyph d="M-471-121q-66 0-153 29-78 25-166 73-272 163-519 687 30 10 109 48 62-140 154-284 79-123 165-220 85-91 143-121 158-94 267-94 45 0 80 15 111 46 147 161 47 147 47 274 0 18-3 34v13q-207-142-364-142-113 0-196 68-89 74-89 200 0 103 66 177 74 72 180 72 94-5 140-72 37-42 37-101 0-62-43.5-106t-97.5-44h-10q-60 0-105 44-32 32-41 75-6-20-6-43 0-73 34-110 56-43 123-43 25 0 62 6 160 35 312 182 43 44 71 85l30-113q21-86 21-172 0-145-52-315-28-82-83-146-101-117-260-117z" glyph-name="Charu_Chandan.11"/><glyph d="M-163-556l-108 1q-17 43-36 83-65 121-222 121-109 0-263-71-61-35-172-61-64-11-104-11-137 1-304 125v162q171-175 323-175 68 4 150 34 39 16 138 63 105 50 230 50 79 0 162-34 48-19 88-52v648l118 111v-994z" glyph-name="Charu_Chandan.12"/><glyph d="M-105-222h-120v492q-63 62-115 66-36-9-73-66 7-11 28-61l-41-12q-7-3-8.5-3t-2.5-1q-14-3-51-21-33 77-84 128-75 69-160 69-40 0-103-18-25-10-49-30-95-79-95-196 0-23 4-49 27-170 191-170-33 11-60 37-44 44-44 106 0 63 44.5 106t102.5 44q47 0 82-22 71-47 84-130 2-14 2-30 0-85-53-148-58-73-175-73-33 0-61 7-157 37-211 181-20 78-20 137 0 102 53 191 71 108 189 155 72 18 121 18 130 0 249-116 74 78 136 82 60-2 120-39v683h120v-1317z" glyph-name="Charu_Chandan.13"/><glyph d="M1149-28h-115v15q-288 67-608 263-230 138-351 279l586 870h-757v111h2085v-111h-625q323-141 397-354 30-76 30-176 0-102-40-171-62-119-195-143-31-6-60-6-100 0-188 65-79 80-79 189 0 18 6 55t35.5 79 81.5 64q33 14 70 14 89 0 138-49 40-40 44-96l1-15h-1q-2-59-45-102t-105-43q-54 0-94 33 30-80 126-80 61 0 109 32 80 54 80 170 0 83-23 139-52 145-263 258-107 54-240 89v-1379zM1034 105v1294h-232l-577-857q111-101 261-193 274-170 548-244z" glyph-name="Charu_Chandan.14" horiz-adv-x="1914"/><glyph d="M1216-28h-116v12q-271 61-607 266-229 145-350 281l572 480q6 38 6 81-2 109-68 223-21-133-103-202-97-77-217-77-12 0-21 1-126 12-187 117-21 40-21 93 0 79 48 128 45 45 109 45t109-45 45-109q0-63-44-107 60 8 101 42 69 61 69 176 0 57-9 124 73 22 77 24 19-9 74.5-62.5t104-160.5 48.5-227q0-63-11-118l-20-23-492-408q108-90 238-173 280-171 549-243v1464h116v-64h287v-111h-287v-1427z" glyph-name="Charu_Chandan.15" horiz-adv-x="1423"/><glyph d="M422 483l-23 42q-4 4-5.5 7.5t-34.5 51.5q159 121 214 207 55 76 55 110l-1 10q-5 21-73 21-161 0-340-34-5-2-10-2.5t-10-2.5q-19-5-61-10l8 77q26 174 121 312 110 167 298 167 230 0 441-271 64-83 174-302l-88-99q-168 367-294 453-133 102-235 102-20 0-37-2-99-20-153-104v-2q-52-73-91-186 158 22 239 22 30 0 41-1 132 0 174-83 14-31 14-63 0-79-80-183-67-102-243-237z" glyph-name="Charu_Chandan.16" horiz-adv-x="797"/><glyph d="M1052 117v1282h-642q-99-84-148-158-58-82-58-130 0-12 13-43l-1 3q17-28 151-28 128 0 312 29 10-56 22-112-36-9-41-9l-101-105q-100-106-195-204-50-51-102-106 93-79 246-177 286-176 544-242zM1167-28h-115v25q-282 64-607 260-220 138-348 279l378 395q-105-3-161-3-226 4-226 183 0 84 75 195 17 26 75 93h-305v111h1480v-111h-246v-1427z" glyph-name="Charu_Chandan.17" horiz-adv-x="1337"/><glyph d="M864 63q-151 0-336 110-242 138-479 550l106 55q197-361 435-506 158-92 273-92 56 0 93 15 125 55 162 178 57 191 57 432-223-87-362-110-37-10-79-10-95 0-145 61-42 53-42 131 0 75 38 178-19 60-19 139 0 87 51 205l51 111 111-40q-61-125-80-182-13-52-14-78 55 39 123 41 81 0 143-57 57-62 57-143 0-85-51-139-70-62-148-62-74 0-142 59-2-30-2-44 0-30 14-50 16-13 52-13 23 0 55 5 170 23 417 137 11 3 29 13l44 22 10-84q7-58 7-134 0-212-64-423-58-181-231-252-71-23-134-23zM809 968q37 0 61 23.5t24 59.5q0 29-25 62-28 23-60 23-33 0-60-25-22-31-22-60 0-35 23-59t59-24z" glyph-name="Charu_Chandan.18" horiz-adv-x="1198"/><glyph d="M387 84q206 0 369 77 201 77 289 285 14 38 14 80 0 17-2 37-16 120-107 198-64 59-195 59-168 0-452-142v-589q30-5 84-5zM386-28q-97 0-194 22v1405h-267v111h1475v-111h-1097v-593q273 124 447 124 191 0 301-113 119-119 119-292 0-67-20-121-99-246-348-344-195-88-416-88z" glyph-name="Charu_Chandan.19" horiz-adv-x="1291"/><glyph d="M387 84q206 0 369 77 201 77 289 285 14 38 14 80 0 17-2 37-16 120-107 198-64 59-195 59-168 0-452-142v-589q30-5 84-5zM386-28q-97 0-194 22v1405h-267v111h1475v-111h-1097v-593q273 124 447 124 191 0 301-113 119-119 119-292 0-67-20-121-99-246-348-344-195-88-416-88z" glyph-name="Charu_Chandan.20" horiz-adv-x="836"/><glyph d="M1375-244q-364 100-663 289l-17-1q-1 3-2.5 10t-27.5 93q193 33 337 86 112 54 125 117 0 40-39 81-49 39-116 49-118-112-253-162-187-70-421-70-51 0-69 2h-41v1149h-266v111h1578v-111h-1200v-338q264 107 422 107 45 0 83-6 111-20 173-74 147-122 147-274 0-69-30-150-23-52-47-89 82-36 109-58 82-69 82-167-8-134-203-222-62-21-165-49 280-148 533-215zM300 357q93 4 197 19 130 22 186 44l5 5q217 72 303 279 21 48 21 105 0 106-103 195h1l-6 6 1-2q-59 51-179 51-164 0-426-122v-580z" glyph-name="Charu_Chandan.21" horiz-adv-x="1398"/><glyph d="M650 449q-116 0-258 87-186 101-368 421l99 55q155-287 325-379 116-70 202-70 41 0 63 10 91 39 119 126 35 121 43 307-228-85-323-85-77 0-115 50-24 37-24 81 0 61 60 169 43 68 153 178h-723v111h1586v-111h-614q15-9 20-13 9-6 19-11.5t23-13.5q69-40 189-82 140-47 210-65 88-18 296-55l-57-111q-231 46-277 59-52 13-136 37-31 11-52 17.5t-29 11.5q-2 1-5 2t-6 3q-8 3-20.5 7t-27.5 10q-57 22-65 27l-12 6q-70 33-130 73-29 14-71 46-214-169-214-309 16-3 27-3 101 0 348 105l-5-3 26 13q8 5 19 10 24 12 32 17 13-130 13-188 0-151-50-322-39-111-129-170-83-48-161-48z" glyph-name="Charu_Chandan.22" horiz-adv-x="768"/><glyph d="M1574-28h-115v511q-142 91-300 125v-636h-115v14q-287 64-609 262-211 125-353 281l588 870h-747v111h1236v-783q142-23 300-104v951h115v-64h255v-111h-255v-1427zM1044 108v1291h-230l-576-858q110-97 260-191 267-169 546-242z" glyph-name="Charu_Chandan.23" horiz-adv-x="1756"/><glyph d="M1370-28h-116v22q-208 211-403 211-86 0-189-15-135-15-190-15-100 12-185.5 61t-138.5 141q-81 126-97 315l116 1q7-57 18-106.5t29-88.5q39-94 108.5-146.5t160.5-60.5q76 0 163 11 137 17 210 17 24 0 50-2 88-7 202-59 70-33 146-101v950q-161 193-347 228-45 5-70 5-51 0-101-15-172-62-225-219-19-61-19-116 0-22 3-43 32-116 106-156 53-29 105-29 20 0 42 4 55 9 86 31l-18-1q-62 0-106 44t-44 106q0 63 44.5 107t113.5 44q10 0 32-6l7.5-3t4.5-1q64-24 110-106 13-43 13-85 0-164-160-231-50-17-117-17-95 0-170 43-123 73-162 236-5 38-5 69 0 97 39 190 78 175 281 250 73 20 129 20 48 0 101-11 260-48 443-300v-29q70 38 140 38 106 0 180-71 69-69 69-171 0-107-96-193 96-93 96-191 0-104-71-172-72-72-171-72-71 0-147 41v-353zM1512 393q57 0 96.5 40t39.5 99q0 54-41 94l2-1q-36 32-94 44v94q35 7 54.5 18t39.5 28l-1-2q40 39 40 98t-39 97.5-97 38.5q-54 0-101-32l-1-2q-26-20-40-42v-495q52-77 142-77z" glyph-name="Charu_Chandan.24" horiz-adv-x="1893"/><glyph d="M447 73q-130 0-215 25h2q-22 7-43 16v1285h-269v111h1151q24 92 24 162 0 290-346 359-74 10-123 10-252-18-488-196l-72 84q300 218 578 218 60 0 122-9 271-47 382-235 57-97 57-228 0-78-20-165h328v-111h-1209v-1201q89-13 148-13 179 0 393 87 100 44 179 118.5t121 176.5q22 52 22 112 0 22-4 42-16 112-98 180-89 75-193 75-17 0-26-1-3-1-7-1-121-16-207-113-43-56-43-112 5-92 67-136-9 25-9 54 0 63 44 106.5t106 43.5q65 0 117-55 34-44 34-101 0-7-2-21-23-125-129-159-38-12-73-12-39 0-76 12-156 60-185 208-8 26-8 63 0 97 69 180 102 133 283 157 11 1 39 1 146 0 271-104 112-97 136-226 8-61 8-80 0-79-31-156-52-122-143-214.5t-219-142.5q-224-94-443-94z" glyph-name="Charu_Chandan.25" horiz-adv-x="1399"/></font>
</defs>
</svg>
