<?xml version="1.0" encoding="utf-8"?>
<!-- Generator: Adobe Illustrator 16.0.0, SVG Export Plug-In . SVG Version: 6.00 Build 0)  -->
<!DOCTYPE svg PUBLIC "-//W3C//DTD SVG 1.1//EN" "http://www.w3.org/Graphics/SVG/1.1/DTD/svg11.dtd">
<svg version="1.1" id="Layer_2" xmlns="http://www.w3.org/2000/svg" xmlns:xlink="http://www.w3.org/1999/xlink" x="0px" y="0px"
	 width="1024px" height="1024px" viewBox="0 0 1024 1024" enable-background="new 0 0 1024 1024" xml:space="preserve">
<path fill="none" stroke="#2D2A44" stroke-width="0.5" stroke-miterlimit="10" d="M574.24,483.4c-26.74,19.87-49,45.45-64.97,74.93
	c-13.84-29.97-33.96-56.43-58.69-77.69c14.92-22.4,36.05-40.3,60.93-51.25C537.41,440.79,559.24,459.72,574.24,483.4z"/>
<path fill="none" stroke="#2D2A44" stroke-width="0.5" stroke-miterlimit="10" d="M644.31,392.09c0,12.03-9.76,21.79-21.8,21.79
	s-21.8-9.76-21.8-21.79c0-12.05,9.76-21.81,21.8-21.81S644.31,380.04,644.31,392.09z"/>
<path fill="none" stroke="#2D2A44" stroke-width="0.5" stroke-miterlimit="10" d="M574.24,483.4c-26.74,19.87-49,45.45-64.97,74.93
	c-13.84-29.97-33.96-56.43-58.69-77.69c14.92-22.4,36.05-40.3,60.93-51.25C537.41,440.79,559.24,459.72,574.24,483.4z"/>
<path fill="none" stroke="#2D2A44" stroke-width="0.5" stroke-miterlimit="10" d="M644.31,392.09c0,12.03-9.76,21.79-21.8,21.79
	s-21.8-9.76-21.8-21.79c0-12.05,9.76-21.81,21.8-21.81S644.31,380.04,644.31,392.09z"/>
<path fill="none" stroke="#2D2A44" stroke-width="0.5" stroke-miterlimit="10" d="M622.51,359.4c-13.45,0-25,8.12-30.01,19.73
	c-1.72,3.97-2.67,8.35-2.67,12.95c0,8.74,3.43,16.67,9,22.54c5.96,6.25,14.36,10.15,23.68,10.15c18.061,0,32.69-14.63,32.69-32.69
	C655.2,374.03,640.57,359.4,622.51,359.4z M622.51,413.88c-12.04,0-21.8-9.76-21.8-21.79c0-12.05,9.76-21.81,21.8-21.81
	s21.8,9.76,21.8,21.81C644.31,404.12,634.55,413.88,622.51,413.88z"/>
<path fill="none" stroke="#2D2A44" stroke-width="0.5" stroke-miterlimit="10" d="M644.31,392.09c0,12.03-9.76,21.79-21.8,21.79
	s-21.8-9.76-21.8-21.79c0-12.05,9.76-21.81,21.8-21.81S644.31,380.04,644.31,392.09z"/>
<path fill="#202021" stroke="#2D2A44" stroke-width="0.5" stroke-miterlimit="10" d="M784.99,737.06
	c-7.16,30.391-16.63,59.891-28.221,88.301c-29.909,26.39-64.109,48.02-101.42,63.729c-25.93,10.92-53.35,18.97-81.88,23.76
	c-20.149,3.4-40.85,5.16-61.96,5.16c-14.35,0-28.51-0.81-42.43-2.399c-44.16-5.03-85.96-17.811-124.01-36.96
	c-0.01,0.01-0.01,0.01-0.01,0c-13.12-6.591-25.78-13.94-37.95-21.99c-16.05-26.54-30.09-54.43-41.91-83.45
	c-28.45-69.79-44.12-146.13-44.12-226.13c0-37.83,3.5-74.84,10.2-110.72c1.74-9.27,3.68-18.46,5.83-27.57
	c11.42-48.37,28.7-94.47,51.06-137.51c5.95-11.48,12.27-22.75,18.94-33.78c15.17-25.11,32.14-49.02,50.72-71.55
	c5.01,12.29,9.63,24.79,13.83,37.47c10.07,30.41,17.78,61.89,22.89,94.24c29.66,4.52,60.04,6.86,90.96,6.86
	c34.28,0,67.88-2.88,100.59-8.4c-0.01-1.68-0.02-3.36-0.02-5.04c0-35.97,3.17-71.19,9.24-105.42c1.939-10.96,4.18-21.81,6.72-32.55
	c17.65,15.85,34.36,32.75,50.02,50.59c17.08,19.43,32.91,39.97,47.37,61.51c25.87,38.49,47.38,80.15,63.851,124.26
	c7.34,19.66,13.68,39.81,18.95,60.38v0.01c12.22,47.71,18.72,97.7,18.72,149.22C800.95,646.56,795.43,692.76,784.99,737.06z"/>
<path fill="#202021" stroke="#2D2A44" stroke-width="0.5" stroke-miterlimit="10" d="M644.31,392.09c0,12.03-9.76,21.79-21.8,21.79
	s-21.8-9.76-21.8-21.79c0-12.05,9.76-21.81,21.8-21.81S644.31,380.04,644.31,392.09z"/>
<path fill="none" stroke="#2D2A44" stroke-width="0.5" stroke-miterlimit="10" d="M574.24,483.4c-26.74,19.87-49,45.45-64.97,74.93
	c-13.84-29.97-33.96-56.43-58.69-77.69c14.92-22.4,36.05-40.3,60.93-51.25C537.41,440.79,559.24,459.72,574.24,483.4z"/>
<path fill="none" stroke="#2D2A44" stroke-width="0.5" stroke-miterlimit="10" d="M574.24,483.4c-26.74,19.87-49,45.45-64.97,74.93
	c-13.84-29.97-33.96-56.43-58.69-77.69c14.92-22.4,36.05-40.3,60.93-51.25C537.41,440.79,559.24,459.72,574.24,483.4z"/>
<path fill="none" stroke="#2D2A44" stroke-width="0.5" stroke-miterlimit="10" d="M469.95,883.08c0,10.91-0.29,21.76-0.87,32.53
	c-44.16-5.03-85.96-17.811-124.01-36.96c-0.01,0.01-0.01,0.01-0.01,0c-13.12-6.591-25.78-13.94-37.95-21.99
	c-16.05-26.54-30.09-54.43-41.91-83.45c-28.45-69.79-44.12-146.13-44.12-226.13c0-37.83,3.5-74.84,10.2-110.72
	c1.74-9.27,3.68-18.46,5.83-27.57c8.36,6.47,16.55,13.15,24.55,20.05c23.77,20.49,45.92,42.81,66.22,66.75
	c17.97,21.19,34.5,43.641,49.41,67.21c26.9,42.45,48.6,88.53,64.23,137.32c11.61,36.27,19.86,74.05,24.38,112.96
	C468.58,836.04,469.95,859.4,469.95,883.08z"/>
<path fill="none" stroke="#2D2A44" stroke-width="0.5" stroke-miterlimit="10" d="M800.95,599.08
	c0,47.479-5.521,93.68-15.96,137.979c-7.16,30.391-16.63,59.891-28.221,88.301c-29.909,26.39-64.109,48.02-101.42,63.729
	c-25.93,10.92-53.35,18.97-81.88,23.76c-2.939-21.869-4.71-44.119-5.22-66.68c-0.12-4.68-0.17-9.38-0.17-14.09
	c0-45.38,5.04-89.58,14.6-132.07c12.44-55.35,32.54-107.8,59.141-156.18c12.689-23.11,26.87-45.29,42.41-66.42
	c9.859-13.43,20.279-26.43,31.22-38.98c15-17.22,30.97-33.57,47.83-48.96c7.34,19.66,13.68,39.81,18.95,60.38v0.01
	C794.45,497.57,800.95,547.56,800.95,599.08z"/>
<path fill="#FAFCFB" stroke="#2D2A44" stroke-width="0.5" stroke-miterlimit="10" d="M699.43,265.21
	c-36.22,13.86-74.13,24.28-113.33,30.91c-32.71,5.52-66.31,8.4-100.59,8.4c-30.92,0-61.3-2.34-90.96-6.86
	c-36.66-5.58-72.22-14.48-106.38-26.38c-22.36,43.04-39.64,89.14-51.06,137.51c8.36,6.47,16.55,13.15,24.55,20.05
	c23.77,20.49,45.92,42.81,66.22,66.75c17.97,21.19,34.5,43.641,49.41,67.21c26.9,42.45,48.6,88.53,64.23,137.32
	c11.61,36.27,19.86,74.05,24.38,112.96c2.68,22.96,4.05,46.32,4.05,70c0,10.91-0.29,21.76-0.87,32.53
	c13.92,1.59,28.08,2.399,42.43,2.399c21.11,0,41.811-1.76,61.96-5.16c-2.939-21.869-4.71-44.119-5.22-66.68
	c-0.12-4.68-0.17-9.38-0.17-14.09c0-45.38,5.04-89.58,14.6-132.07c12.44-55.35,32.54-107.8,59.141-156.18
	c12.689-23.11,26.87-45.29,42.41-66.42c9.859-13.43,20.279-26.43,31.22-38.98c15-17.22,30.97-33.57,47.83-48.96
	C746.81,345.36,725.3,303.7,699.43,265.21z M419.51,452.56c-4.32,0-8.52-0.5-12.54-1.46c-2.63-0.61-5.19-1.42-7.66-2.41
	c-4.3-1.72-8.32-3.97-11.99-6.67h-0.01c-1.9-1.4-3.71-2.92-5.42-4.55c-10.38-9.91-16.85-23.9-16.85-39.39
	c0-23.32,14.65-43.21,35.24-50.98c5.98-2.26,12.46-3.49,19.23-3.49c30.09,0,54.48,24.38,54.48,54.47c0,7.15-1.38,13.97-3.88,20.22
	C462.08,438.38,442.45,452.56,419.51,452.56z M509.27,558.33c-13.84-29.97-33.96-56.43-58.69-77.69
	c14.92-22.4,36.05-40.3,60.93-51.25c25.9,11.4,47.73,30.33,62.73,54.01C547.5,503.27,525.24,528.85,509.27,558.33z M646.65,440.93
	c-7.271,3.61-15.471,5.63-24.141,5.63c-5.85,0-11.479-0.92-16.76-2.63c-13.56-4.38-24.8-13.94-31.38-26.36
	c-4.04-7.6-6.33-16.28-6.33-25.49c0-17.39,8.14-32.87,20.82-42.84v-0.01c9.26-7.28,20.949-11.62,33.649-11.62
	c30.09,0,54.48,24.38,54.48,54.47C676.99,413.5,664.63,432.03,646.65,440.93z"/>
<path fill="none" stroke="#2D2A44" stroke-width="0.5" stroke-miterlimit="10" d="M419.51,343.61c-6.77,0-13.25,1.23-19.23,3.49
	c-20.59,7.77-35.24,27.66-35.24,50.98c0,15.49,6.47,29.48,16.85,39.39c1.71,1.63,3.52,3.15,5.42,4.55h0.01
	c3.67,2.7,7.69,4.95,11.99,6.67c2.47,0.99,5.03,1.8,7.66,2.41c4.02,0.96,8.22,1.46,12.54,1.46c22.94,0,42.57-14.18,50.6-34.26
	c2.5-6.25,3.88-13.07,3.88-20.22C473.99,367.99,449.6,343.61,419.51,343.61z M445.64,417.73c-5.96,7.92-15.45,13.04-26.13,13.04
	c-5.68,0-11.01-1.45-15.66-3.99c-0.96-0.53-1.9-1.1-2.8-1.72c-8.59-5.89-14.22-15.77-14.22-26.98c0-11.42,5.86-21.47,14.74-27.32
	c5.15-3.39,11.31-5.36,17.94-5.36c18.06,0,32.69,14.63,32.69,32.68C452.2,405.46,449.76,412.26,445.64,417.73z"/>
<path fill="#D9B226" stroke="#2D2A44" stroke-width="0.5" stroke-miterlimit="10" d="M419.51,365.4c-6.63,0-12.79,1.97-17.94,5.36
	c-8.88,5.85-14.74,15.9-14.74,27.32c0,11.21,5.63,21.09,14.22,26.98c0.9,0.62,1.84,1.19,2.8,1.72c4.65,2.54,9.98,3.99,15.66,3.99
	c10.68,0,20.17-5.12,26.13-13.04c4.12-5.47,6.56-12.27,6.56-19.65C452.2,380.03,437.57,365.4,419.51,365.4z M419.51,419.88
	c-7.39,0-13.91-3.67-17.85-9.29c-2.49-3.54-3.95-7.85-3.95-12.5c0-4.82,1.56-9.26,4.2-12.86c0-0.01,0-0.01,0-0.01
	c3.96-5.42,10.37-8.94,17.6-8.94c12.05,0,21.8,9.76,21.8,21.81C441.31,410.12,431.56,419.88,419.51,419.88z"/>
<path fill="#D9B226" stroke="#2D2A44" stroke-width="0.5" stroke-miterlimit="10" d="M622.76,359.275
	c-6.631,0-12.79,1.97-17.94,5.36c-8.88,5.85-14.739,15.9-14.739,27.32c0,11.21,5.629,21.09,14.219,26.98
	c0.9,0.62,1.841,1.19,2.801,1.72c4.65,2.54,9.98,3.99,15.66,3.99c10.68,0,20.17-5.12,26.13-13.04c4.12-5.47,6.56-12.27,6.56-19.65
	C655.449,373.905,640.819,359.275,622.76,359.275z M622.76,413.755c-7.391,0-13.91-3.67-17.85-9.29
	c-2.49-3.54-3.951-7.85-3.951-12.5c0-4.82,1.561-9.26,4.201-12.86c0-0.01,0-0.01,0-0.01c3.959-5.42,10.369-8.94,17.6-8.94
	c12.05,0,21.8,9.76,21.8,21.81C644.56,403.995,634.81,413.755,622.76,413.755z"/>
<path fill="none" stroke="#2D2A44" stroke-width="0.5" stroke-miterlimit="10" d="M441.31,398.09c0,12.03-9.75,21.79-21.8,21.79
	c-7.39,0-13.91-3.67-17.85-9.29c-2.49-3.54-3.95-7.85-3.95-12.5c0-4.82,1.56-9.26,4.2-12.86c0-0.01,0-0.01,0-0.01
	c3.96-5.42,10.37-8.94,17.6-8.94C431.56,376.28,441.31,386.04,441.31,398.09z"/>
<path fill="#D9B226" stroke="#2D2A44" stroke-width="0.5" stroke-miterlimit="10" d="M574.24,483.4
	c-26.74,19.87-49,45.45-64.97,74.93c-13.84-29.97-33.96-56.43-58.69-77.69c14.92-22.4,36.05-40.3,60.93-51.25
	C537.41,440.79,559.24,459.72,574.24,483.4z"/>
<path fill="#14294C" stroke="#2D2A44" stroke-width="0.5" stroke-miterlimit="10" d="M622.51,337.61
	c-12.7,0-24.39,4.34-33.649,11.62v0.01c-12.681,9.97-20.82,25.45-20.82,42.84c0,9.21,2.29,17.89,6.33,25.49
	c6.58,12.42,17.82,21.98,31.38,26.36c5.28,1.71,10.91,2.63,16.76,2.63c8.67,0,16.87-2.02,24.141-5.63
	c17.979-8.9,30.34-27.43,30.34-48.85C676.99,361.99,652.6,337.61,622.51,337.61z M622.51,424.77c-9.319,0-17.72-3.9-23.68-10.15
	c-5.57-5.87-9-13.8-9-22.54c0-4.6,0.95-8.98,2.67-12.95c5.01-11.61,16.56-19.73,30.01-19.73c18.061,0,32.69,14.63,32.69,32.68
	C655.2,410.14,640.57,424.77,622.51,424.77z"/>
<path fill="#14294C" stroke="#2D2A44" stroke-width="0.5" stroke-miterlimit="10" d="M419.6,343.374
	c-12.7,0-24.39,4.34-33.649,11.62v0.01c-12.681,9.97-20.82,25.45-20.82,42.84c0,9.21,2.29,17.89,6.33,25.49
	c6.58,12.42,17.82,21.98,31.38,26.36c5.28,1.71,10.91,2.63,16.76,2.63c8.67,0,16.87-2.02,24.141-5.63
	c17.979-8.9,30.34-27.43,30.34-48.85C474.08,367.754,449.689,343.374,419.6,343.374z M419.6,430.534c-9.319,0-17.72-3.9-23.68-10.15
	c-5.57-5.87-9-13.8-9-22.54c0-4.6,0.95-8.98,2.67-12.95c5.01-11.61,16.56-19.73,30.01-19.73c18.061,0,32.69,14.63,32.69,32.68
	C452.29,415.904,437.66,430.534,419.6,430.534z"/>
<path fill="#2A2A2B" stroke="#2D2A44" stroke-width="0.5" stroke-miterlimit="10" d="M394.55,297.66
	c-36.66-5.58-72.22-14.48-106.38-26.38c5.95-11.48,12.27-22.75,18.94-33.78c15.17-25.11,32.14-49.02,50.72-71.55
	c5.01,12.29,9.63,24.79,13.83,37.47C381.73,233.83,389.44,265.31,394.55,297.66z"/>
<path fill="#2A2A2B" stroke="#2D2A44" stroke-width="0.5" stroke-miterlimit="10" d="M699.43,265.21
	c-36.22,13.86-74.13,24.28-113.33,30.91c-0.01-1.68-0.02-3.36-0.02-5.04c0-35.97,3.17-71.19,9.24-105.42
	c1.939-10.96,4.18-21.81,6.72-32.55c17.65,15.85,34.36,32.75,50.02,50.59C669.14,223.13,684.97,243.67,699.43,265.21z"/>
</svg>
