<?xml version="1.0" standalone="no"?>
<!DOCTYPE svg PUBLIC "-//W3C//DTD SVG 20010904//EN"
 "http://www.w3.org/TR/2001/REC-SVG-20010904/DTD/svg10.dtd">
<svg version="1.0" xmlns="http://www.w3.org/2000/svg"
 width="700.000000pt" height="700.000000pt" viewBox="0 0 700.000000 700.000000"
 preserveAspectRatio="xMidYMid meet">
<metadata>
Created by potrace 1.11, written by Peter Selinger 2001-2013
</metadata>
<g transform="translate(0.000000,700.000000) scale(0.100000,-0.100000)"
fill="#000000" stroke="none">
<path d="M4102 5913 c-54 -252 -78 -437 -94 -713 -7 -128 -16 -218 -22 -222
-61 -42 483 91 711 174 l92 33 -64 90 c-151 212 -397 494 -543 623 l-70 62
-10 -47z"/>
<path d="M2353 5753 c-102 -135 -206 -288 -281 -416 -64 -108 -116 -211 -104
-203 5 3 48 -7 95 -23 166 -56 586 -153 650 -150 16 1 17 3 5 6 -11 3 -20 18
-24 41 -21 124 -69 334 -104 452 -37 129 -117 359 -137 395 -8 14 -26 -5 -100
-102z"/>
<path d="M3918 4963 c6 -2 18 -2 25 0 6 3 1 5 -13 5 -14 0 -19 -2 -12 -5z"/>
<path d="M2768 4953 c6 -2 18 -2 25 0 6 3 1 5 -13 5 -14 0 -19 -2 -12 -5z"/>
<path d="M3848 4953 c6 -2 18 -2 25 0 6 3 1 5 -13 5 -14 0 -19 -2 -12 -5z"/>
<path d="M2853 4943 c9 -2 23 -2 30 0 6 3 -1 5 -18 5 -16 0 -22 -2 -12 -5z"/>
<path d="M3763 4943 c9 -2 23 -2 30 0 6 3 -1 5 -18 5 -16 0 -22 -2 -12 -5z"/>
<path d="M2953 4933 c9 -2 23 -2 30 0 6 3 -1 5 -18 5 -16 0 -22 -2 -12 -5z"/>
<path d="M3663 4933 c9 -2 23 -2 30 0 6 3 -1 5 -18 5 -16 0 -22 -2 -12 -5z"/>
<path d="M3093 4923 c15 -2 37 -2 50 0 12 2 0 4 -28 4 -27 0 -38 -2 -22 -4z"/>
<path d="M3498 4923 c18 -2 45 -2 60 0 15 2 0 4 -33 4 -33 0 -45 -2 -27 -4z"/>
<path d="M4184 4690 c-112 -23 -215 -103 -266 -208 -30 -61 -33 -74 -33 -162
0 -88 3 -101 33 -162 140 -284 535 -284 674 0 30 61 33 74 33 162 0 81 -4 103
-26 150 -44 94 -128 173 -217 204 -52 18 -149 26 -198 16z m179 -182 c22 -13
55 -43 72 -66 27 -40 30 -51 30 -122 0 -71 -3 -82 -30 -122 -91 -129 -284
-124 -362 9 -40 68 -43 138 -9 208 57 114 186 155 299 93z"/>
<path d="M4173 4448 c-45 -33 -67 -75 -67 -130 0 -110 118 -180 220 -132 102
49 111 197 15 261 -47 31 -124 32 -168 1z"/>
<path d="M2785 4647 c-73 -19 -152 -65 -196 -115 -197 -224 -78 -565 218 -624
153 -31 327 60 400 210 35 72 44 190 19 275 -52 178 -262 299 -441 254z m182
-175 c139 -72 158 -260 37 -360 -111 -92 -273 -52 -335 83 -35 77 -19 163 42
230 68 74 167 92 256 47z"/>
<path d="M2790 4408 c-53 -37 -74 -72 -74 -126 0 -91 61 -152 152 -152 93 0
157 70 149 163 -2 27 -13 61 -24 75 -45 62 -143 81 -203 40z"/>
<path d="M5042 4165 c-191 -199 -316 -351 -450 -549 -217 -318 -374 -635 -498
-1001 -154 -458 -227 -951 -210 -1425 8 -204 27 -414 39 -426 12 -13 216 35
377 89 269 89 557 246 780 424 99 79 109 95 181 309 284 834 289 1762 13 2599
-25 77 -48 144 -52 150 -4 6 -81 -67 -180 -170z"/>
<path d="M1641 4304 c0 -11 3 -14 6 -6 3 7 2 16 -1 19 -3 4 -6 -2 -5 -13z"/>
<path d="M1631 4264 c0 -11 3 -14 6 -6 3 7 2 16 -1 19 -3 4 -6 -2 -5 -13z"/>
<path d="M1597 4115 c-68 -320 -92 -600 -84 -958 7 -266 21 -413 62 -641 81
-438 231 -854 458 -1263 l62 -112 104 -62 c200 -119 442 -221 652 -274 105
-27 305 -65 341 -65 20 0 20 5 15 298 -8 522 -84 922 -264 1392 -246 645 -676
1245 -1205 1683 -65 54 -108 97 -110 110 -2 12 -16 -36 -31 -108z"/>
<path d="M3480 4060 c-9 -6 -10 -10 -3 -10 6 0 15 5 18 10 8 12 4 12 -15 0z"/>
<path d="M3511 4056 c10 -9 69 -36 69 -32 0 6 -55 36 -66 36 -4 0 -5 -2 -3 -4z"/>
<path d="M3403 4020 c-29 -17 -53 -33 -53 -36 0 -5 88 43 105 58 17 15 0 8
-52 -22z"/>
<path d="M3590 4017 c0 -2 26 -21 58 -42 74 -49 173 -144 228 -218 l43 -58
-57 -48 c-124 -104 -276 -278 -336 -383 -29 -51 -5 -22 55 67 59 87 223 263
299 321 l49 37 -17 30 c-28 49 -172 196 -236 241 -69 48 -86 59 -86 53z"/>
<path d="M3300 3953 c-55 -42 -137 -123 -182 -181 l-41 -52 90 -93 c49 -50
108 -118 132 -149 24 -32 45 -58 48 -58 12 0 -74 105 -161 197 l-98 103 41 54
c43 55 103 115 176 173 48 39 44 44 -5 6z"/>
<path d="M3365 3386 c10 -16 26 -44 37 -63 11 -18 22 -33 25 -33 7 0 -35 71
-59 100 l-20 25 17 -29z"/>
<path d="M3456 3229 c14 -28 27 -49 28 -47 2 1 9 14 15 28 11 23 11 23 -3 7
-14 -18 -16 -17 -36 22 -11 23 -23 41 -25 41 -3 0 6 -23 21 -51z"/>
<path d="M3888 753 c7 -3 16 -2 19 1 4 3 -2 6 -13 5 -11 0 -14 -3 -6 -6z"/>
<path d="M3818 743 c7 -3 16 -2 19 1 4 3 -2 6 -13 5 -11 0 -14 -3 -6 -6z"/>
<path d="M3243 733 c9 -2 23 -2 30 0 6 3 -1 5 -18 5 -16 0 -22 -2 -12 -5z"/>
<path d="M3723 733 c9 -2 23 -2 30 0 6 3 -1 5 -18 5 -16 0 -22 -2 -12 -5z"/>
<path d="M3423 723 c43 -2 110 -2 150 0 40 1 5 3 -78 3 -82 0 -115 -2 -72 -3z"/>
</g>
</svg>
